<svg width="34" height="22" viewBox="0 0 34 22" fill="none" xmlns="http://www.w3.org/2000/svg">
<path d="M9.84939 0.0430459C10.7728 0.0430459 11.6962 0.129138 12.5756 0.301324C13.3231 0.473511 14.0266 0.774836 14.6861 1.2053C15.2578 1.63577 15.7414 2.19537 16.0492 2.84107C16.401 3.65895 16.5769 4.51989 16.5329 5.38082C16.5769 6.32784 16.3131 7.27486 15.8294 8.09275C15.3017 8.86758 14.5542 9.47024 13.7188 9.85766C14.906 10.159 15.9173 10.8908 16.5769 11.8378C17.2364 12.8709 17.5442 14.0762 17.5442 15.2815C17.5442 16.2716 17.3683 17.2186 16.9286 18.0795C16.5329 18.8544 15.9613 19.5001 15.3017 20.0597C14.5982 20.5762 13.7628 20.9637 12.9273 21.1789C12.0479 21.4372 11.1245 21.5233 10.2012 21.5233H0V0H9.84939V0.0430459ZM9.23381 8.73844C9.93733 8.78149 10.6848 8.56626 11.2564 8.1358C11.8281 7.66228 12.1359 6.93049 12.0479 6.15565C12.0479 5.72519 11.96 5.29472 11.7841 4.90731C11.6082 4.60598 11.3884 4.3477 11.0806 4.17551C10.7728 4.00333 10.421 3.83114 10.0692 3.78809C9.67351 3.702 9.27777 3.702 8.88204 3.702H4.57293V8.73844H9.23381ZM9.49763 17.9504C9.93733 17.9504 10.377 17.9074 10.7728 17.8213C11.1685 17.7352 11.5203 17.563 11.872 17.3478C12.1798 17.1325 12.4437 16.8312 12.6195 16.4868C12.8394 16.0564 12.9273 15.5828 12.8834 15.1093C12.9713 14.2054 12.6195 13.3444 11.96 12.7418C11.2564 12.2252 10.421 12.01 9.5416 12.053H4.57293V17.9935H9.49763V17.9504Z" fill="white"/>
<path d="M24.0519 17.8643C24.7994 18.51 25.7667 18.8544 26.7341 18.8113C27.5255 18.8113 28.273 18.5961 28.8886 18.1656C29.4163 17.8213 29.768 17.3477 29.9879 16.7881H33.6374C33.2417 18.3809 32.2744 19.8014 30.9552 20.7915C29.6801 21.6524 28.1411 22.0398 26.5582 21.9968C25.4589 21.9968 24.3597 21.8246 23.3044 21.3941C22.381 21.0067 21.5455 20.4471 20.886 19.7153C20.2264 18.9405 19.6988 18.0795 19.347 17.1325C18.9513 16.0564 18.7754 14.9371 18.8194 13.8179C18.8194 12.6987 18.9953 11.6226 19.391 10.5464C20.4463 7.53314 23.3483 5.50996 26.6022 5.553C27.7894 5.50996 28.9326 5.81128 29.9879 6.32784C30.9113 6.8444 31.7467 7.53314 32.3623 8.39407C32.9779 9.29805 33.4616 10.2881 33.6814 11.3643C33.9452 12.4835 34.0332 13.6888 33.9892 14.851H23.0845C22.9526 15.9272 23.3044 17.0034 24.0519 17.8643ZM28.8007 9.64242C28.1851 9.03977 27.3497 8.73845 26.4702 8.78149C25.8986 8.78149 25.327 8.86758 24.8433 9.12586C24.4476 9.3411 24.0958 9.64242 23.788 9.98679C23.5242 10.3312 23.3483 10.6755 23.2164 11.106C23.1285 11.4504 23.0405 11.7948 23.0405 12.1391H29.812C29.7241 11.2351 29.3723 10.3742 28.8007 9.64242Z" fill="white"/>
<path d="M30.6035 1.46358H22.1611V3.57286H30.6035V1.46358Z" fill="white"/>
</svg>
