<svg width="71" height="47" viewBox="0 0 71 47" fill="none" xmlns="http://www.w3.org/2000/svg">
<mask id="mask0_2182_2848" style="mask-type:alpha" maskUnits="userSpaceOnUse" x="0" y="0" width="71" height="48">
<path d="M0.306606 29.8917C-0.0161332 30.1464 -0.0840873 30.5708 0.102772 31.1651C0.272627 31.6915 0.671806 32.345 1.3003 33.126C3.83118 36.2501 6.84623 38.8477 10.3454 40.9191C13.8446 42.9905 17.5901 44.5184 21.5819 45.5031C25.5905 46.5049 29.6842 47.0057 33.8627 47.0057C39.2134 47.0057 44.3093 46.2248 49.1503 44.6627C53.9914 43.1177 58.034 40.9445 61.2785 38.1431C62.4165 37.1414 62.9856 36.3435 62.9856 35.7491C62.9856 35.5284 62.8922 35.3077 62.7054 35.087C62.4505 34.8324 62.1448 34.7475 61.788 34.8324C61.4313 34.9172 60.9303 35.1294 60.2848 35.469C57.1763 37.099 53.3885 38.3978 48.921 39.3656C44.4707 40.3503 39.825 40.8426 34.9839 40.8426C28.9878 40.8426 23.1955 40.0277 17.607 38.3978C12.0186 36.7678 7.06706 34.2212 2.75261 30.7577C2.12415 30.2653 1.61448 29.9511 1.22385 29.8152C0.850159 29.6794 0.544403 29.705 0.306606 29.8917Z" fill="#FF6200"/>
<path d="M56.9171 31.1664C56.5604 31.5061 56.467 31.8626 56.6369 32.2362C56.7559 32.5078 56.9851 32.6605 57.3249 32.6945C57.6645 32.7454 58.1487 32.7114 58.7771 32.5927C59.7963 32.372 60.8579 32.2191 61.9621 32.1342C63.0662 32.0664 64.026 32.0833 64.8412 32.1851C65.6567 32.304 66.1662 32.5078 66.3701 32.7963C66.6758 33.2548 66.5653 34.2224 66.0388 35.6996C65.5292 37.1765 64.8328 38.6111 63.9495 40.0033C63.6097 40.5635 63.406 41.0049 63.3379 41.3276C63.2701 41.6501 63.355 41.9218 63.5928 42.1425C63.7456 42.2952 63.9155 42.3716 64.1023 42.3716C64.595 42.3716 65.3084 41.9387 66.2426 41.0729C67.9243 39.6128 69.1047 37.8811 69.7843 35.8778C70.1579 34.8421 70.3872 33.7556 70.4721 32.6181C70.5571 31.4807 70.4297 30.6657 70.0899 30.1733C69.7672 29.6979 69.0538 29.3074 67.9497 29.002C66.8627 28.6963 65.767 28.5435 64.6629 28.5435C62.5056 28.5435 60.4588 29.0529 58.5224 30.0715C57.809 30.462 57.274 30.827 56.9171 31.1664Z" fill="#FF6200"/>
<path d="M10.5946 22.0578C6.98998 22.0578 4.54688 19.4957 4.54688 15.6926C4.54688 11.0889 8.15145 8.20661 13.8387 8.20661C14.84 8.20661 15.4407 8.24664 15.9213 8.36674V7.88635C15.9213 5.24423 15.0002 4.00323 13.0777 4.00323C11.5558 4.00323 10.4744 4.88394 10.0739 6.44519C9.95374 6.92558 9.67339 7.16577 9.27288 7.08571L5.7484 6.44519C5.26779 6.36513 5.06754 6.04487 5.18769 5.56448C6.06881 2.00161 9.07262 0 13.4382 0C18.6047 0 21.3282 2.84229 21.3282 8.16658V20.9369C21.3282 21.3372 21.0478 21.6174 20.6874 21.6174H17.3632C16.9626 21.6174 16.7223 21.3772 16.6422 20.9369L16.1216 18.575H15.8813C14.9201 20.8168 13.0377 22.0578 10.5946 22.0578ZM12.6772 18.0145C14.7999 18.0145 15.9213 16.093 15.9213 12.5301V11.2491C15.5208 11.169 15.0803 11.129 14.5996 11.129C11.8361 11.129 10.1139 12.6102 10.1139 15.0521C10.1139 16.8536 11.1152 18.0145 12.6772 18.0145Z" fill="#161D26"/>
<path d="M44.842 0.479492C44.5616 0.479492 44.3213 0.719686 44.2813 0.959879L41.9183 15.2514H41.678L39.0346 0.959879C38.9946 0.719686 38.7543 0.479492 38.4739 0.479492H34.3887C34.1083 0.479492 33.868 0.719686 33.828 0.959879L31.1446 15.2514H30.9043L28.5012 0.959879C28.4612 0.719686 28.2209 0.479492 27.9405 0.479492H23.5349C23.0944 0.479492 22.814 0.799751 22.9342 1.24011L27.6602 21.1361C27.7403 21.4164 27.9405 21.6165 28.2609 21.6165H33.2272C33.5076 21.6165 33.7479 21.3763 33.7879 21.1361L36.3111 9.36665H36.5114L39.0346 21.1361C39.0747 21.3763 39.315 21.6165 39.5953 21.6165H44.5616C44.882 21.6165 45.0823 21.4164 45.1624 21.1361L49.8884 1.24011C50.0085 0.799751 49.7282 0.479492 49.2876 0.479492H44.842Z" fill="#161D26"/>
<path d="M50.5551 15.2123C50.5151 14.852 50.7554 14.5717 51.1158 14.4917L54.6804 13.8111C55.0809 13.7311 55.4013 13.9713 55.4413 14.3716C55.7617 16.6534 56.8832 17.8144 58.7656 17.8144C60.4477 17.8144 61.5291 16.9737 61.5291 15.6126C61.5291 14.4116 60.7681 13.5709 59.1661 13.2106L56.6429 12.6102C52.838 11.6894 50.9156 9.64778 50.9156 6.44519C50.9156 2.6021 54.0396 0 58.5653 0C62.6905 0 65.374 1.92155 66.3352 5.60451C66.4153 5.92477 66.175 6.24503 65.8946 6.28506L61.9696 6.96561C61.7293 7.00565 61.449 6.84552 61.4089 6.56529C61.0885 5.00403 60.1273 4.24342 58.5653 4.24342C57.1635 4.24342 56.1623 5.00403 56.1623 6.12493C56.1623 7.12574 56.9633 7.88635 58.5253 8.24664L61.1686 8.88716C64.9734 9.80791 66.7757 11.8095 66.7757 15.1322C66.7757 19.1354 63.4115 22.0578 58.8056 22.0578C54.1597 22.0578 50.9957 19.3756 50.5551 15.2123Z" fill="#161D26"/>
</mask>
<g mask="url(#mask0_2182_2848)">
<g filter="url(#filter0_d_2182_2848)">
<rect x="-21.1523" y="-5.64062" width="112.801" height="59.228" fill="#020202"/>
</g>
</g>
<defs>
<filter id="filter0_d_2182_2848" x="-25.1523" y="-5.64062" width="120.801" height="67.228" filterUnits="userSpaceOnUse" color-interpolation-filters="sRGB">
<feFlood flood-opacity="0" result="BackgroundImageFix"/>
<feColorMatrix in="SourceAlpha" type="matrix" values="0 0 0 0 0 0 0 0 0 0 0 0 0 0 0 0 0 0 127 0" result="hardAlpha"/>
<feOffset dy="4"/>
<feGaussianBlur stdDeviation="2"/>
<feComposite in2="hardAlpha" operator="out"/>
<feColorMatrix type="matrix" values="0 0 0 0 0 0 0 0 0 0 0 0 0 0 0 0 0 0 0.25 0"/>
<feBlend mode="normal" in2="BackgroundImageFix" result="effect1_dropShadow_2182_2848"/>
<feBlend mode="normal" in="SourceGraphic" in2="effect1_dropShadow_2182_2848" result="shape"/>
</filter>
</defs>
</svg>
