<svg width="100" height="51" viewBox="0 0 100 51" fill="none" xmlns="http://www.w3.org/2000/svg">
<mask id="mask0_2181_2680" style="mask-type:alpha" maskUnits="userSpaceOnUse" x="0" y="0" width="100" height="51">
<path d="M15.6858 50.83H13.654L12.8757 48.5203H9.26278L8.50447 50.83H6.47266L10.0342 41.168H12.1843L15.6858 50.83ZM12.4119 47.0374L11.2363 43.5379C11.1873 43.399 11.1384 43.1302 11.0849 42.7381H11.0401C11.0046 43.0318 10.9511 43.2937 10.8773 43.5244L9.69312 47.0374H12.4119Z" fill="#B20000"/>
<path d="M16.7266 50.8296V40.623H18.5421V50.8296H16.7266Z" fill="#B20000"/>
<path d="M22.2479 49.9691V50.8295H20.4258V40.623H22.2479V45.0207H22.2679C22.799 44.1849 23.557 43.7682 24.5408 43.7682C25.4126 43.7682 26.095 44.073 26.5857 44.6868C27.0788 45.2985 27.3264 46.1319 27.3264 47.187C27.3264 48.3384 27.043 49.2615 26.4788 49.956C25.9147 50.6525 25.1653 51 24.2284 51C23.3697 51 22.7163 50.657 22.2679 49.9691H22.2479ZM22.221 47.8835C22.221 48.3584 22.3683 48.7595 22.6607 49.0844C22.9528 49.4069 23.3183 49.5683 23.758 49.5683C24.2887 49.5683 24.7056 49.3622 25.0046 48.9455C25.3056 48.5309 25.4573 47.9462 25.4573 47.1935C25.4573 46.5687 25.3191 46.0778 25.0445 45.7242C24.7704 45.3678 24.3821 45.1907 23.8828 45.1907C23.3986 45.1907 23.0017 45.3702 22.6896 45.7308C22.3772 46.0893 22.221 46.5461 22.221 47.1017V47.8835L22.221 47.8835Z" fill="#B20000"/>
<path d="M34.7871 47.8944H30.2017C30.2752 49.0683 30.9376 49.6551 32.1867 49.6551C32.9494 49.6551 33.6295 49.4535 34.225 49.0503V50.4414C33.5895 50.8134 32.7732 50.9994 31.7763 50.9994C30.7079 50.9994 29.8783 50.688 29.2827 50.0673C28.6896 49.4469 28.3906 48.5775 28.3906 47.4618C28.3906 46.3686 28.7096 45.4794 29.3476 44.7939C29.9876 44.1081 30.7859 43.7676 31.7428 43.7676C32.7019 43.7676 33.4488 44.0613 33.9843 44.6526C34.5195 45.2442 34.7871 46.0551 34.7871 47.0876V47.8944V47.8944ZM33.0698 46.6935C33.0698 45.6003 32.6215 45.0538 31.7228 45.0538C31.3479 45.0538 31.02 45.2017 30.7348 45.4996C30.4493 45.7975 30.2707 46.1962 30.2017 46.6936H33.0698V46.6935Z" fill="#B20000"/>
<path d="M40.3809 45.6192C40.1423 45.4733 39.8478 45.4016 39.5002 45.4016C39.043 45.4016 38.6771 45.5901 38.4029 45.9642C38.1284 46.3382 37.9901 46.8398 37.9901 47.4695V50.8298H36.168V43.9323H37.9901V45.2582H38.0101C38.3446 44.2949 38.9492 43.8135 39.8188 43.8135C40.0689 43.8135 40.2561 43.8447 40.381 43.9053V45.6191L40.3809 45.6192Z" fill="#B20000"/>
<path d="M45.7046 50.7587C45.397 50.9156 44.9642 50.9939 44.4111 50.9939C43.0038 50.9939 42.3013 50.2457 42.3013 48.7493V45.3239H41.1641V43.9329H42.3013V42.389L44.1166 41.8584V43.9329H45.7046V45.3239H44.1166V48.4289C44.1166 49.1906 44.4156 49.5692 45.0132 49.5692C45.2608 49.5692 45.4904 49.4996 45.7046 49.3607V50.7587Z" fill="#B20000"/>
<path d="M57.4496 50.83H51.8828V41.168H57.233V42.725H53.7449V45.1846H56.9854V46.7347H53.7449V49.282H57.4496V50.83Z" fill="#B20000"/>
<path d="M58.7266 41.6605C58.7266 41.3802 58.8245 41.1471 59.0231 40.9591C59.2214 40.771 59.478 40.6768 59.7904 40.6768C60.096 40.6768 60.3501 40.7685 60.5553 40.9546C60.7604 41.1406 60.8629 41.3758 60.8629 41.6605C60.8629 41.9449 60.7605 42.1821 60.5573 42.3706C60.3567 42.5587 60.1004 42.6529 59.7904 42.6529C59.4804 42.6529 59.2259 42.5566 59.0252 42.3637C58.8245 42.1711 58.7266 41.9359 58.7266 41.6605V41.6605ZM58.869 50.8296V43.9321H60.6846V50.8296H58.869Z" fill="#B20000"/>
<path d="M68.9265 50.8299H67.1112V46.9632C67.1112 45.7827 66.6853 45.1911 65.8377 45.1911C65.4094 45.1911 65.0615 45.3525 64.7939 45.675C64.5263 45.9954 64.3925 46.4031 64.3925 46.8984V50.8299H62.5703V43.9324H64.3925V45.0412H64.4125C64.9166 44.1922 65.6594 43.7686 66.6405 43.7686C68.1661 43.7686 68.9265 44.7142 68.9265 46.6092V50.8299V50.8299Z" fill="#B20000"/>
<path d="M70.4805 49.0578C71.1608 49.4856 71.8319 49.7007 72.4943 49.7007C73.3464 49.7007 73.7744 49.4589 73.7744 48.9726C73.7744 48.6345 73.4354 48.3522 72.7619 48.1191C71.7764 47.7876 71.1519 47.4606 70.8864 47.1381C70.6208 46.8153 70.487 46.4031 70.487 45.9012C70.487 45.2362 70.757 44.7142 71.2967 44.3356C71.8388 43.957 72.5323 43.7686 73.382 43.7686C73.9755 43.7686 74.5662 43.8628 75.1597 44.0509V45.5406C74.6245 45.2203 74.0379 45.0613 73.402 45.0613C73.0654 45.0613 72.7954 45.124 72.5902 45.2518C72.3875 45.3771 72.2847 45.5476 72.2847 45.7557C72.2847 46.1032 72.5702 46.3765 73.1413 46.578C73.7903 46.8132 74.2651 47.0103 74.5706 47.1717C74.8762 47.3307 75.1128 47.5479 75.2845 47.8236C75.4538 48.099 75.5386 48.4239 75.5386 48.7959C75.5386 49.4945 75.26 50.037 74.7044 50.4222C74.1492 50.8073 73.4178 51.0003 72.5054 51.0003C71.7405 51.0003 71.0646 50.877 70.4805 50.6328V49.0577V49.0578Z" fill="#B20000"/>
<path d="M80.7515 50.7587C80.4439 50.9156 80.0111 50.9939 79.458 50.9939C78.0507 50.9939 77.3482 50.2457 77.3482 48.7493V45.3239H76.2109V43.9329H77.3482V42.389L79.1635 41.8584V43.9329H80.7515V45.3239H79.1635V48.4289C79.1635 49.1906 79.4624 49.5692 80.0601 49.5692C80.3077 49.5692 80.5373 49.4996 80.7515 49.3607V50.7587Z" fill="#B20000"/>
<path d="M87.9512 47.8944H83.3658C83.4392 49.0683 84.1017 49.6551 85.3507 49.6551C86.1135 49.6551 86.7935 49.4535 87.3891 49.0503V50.4414C86.7535 50.8134 85.9373 50.9994 84.9404 50.9994C83.872 50.9994 83.0423 50.688 82.4468 50.0673C81.8537 49.4469 81.5547 48.5775 81.5547 47.4618C81.5547 46.3686 81.8737 45.4794 82.5116 44.7939C83.1516 44.1081 83.95 43.7676 84.9069 43.7676C85.8659 43.7676 86.6128 44.0613 87.1484 44.6526C87.6836 45.2442 87.9512 46.0551 87.9512 47.0876V47.8944V47.8944ZM86.2338 46.6935C86.2338 45.6003 85.7855 45.0538 84.8869 45.0538C84.512 45.0538 84.1841 45.2017 83.8989 45.4996C83.6133 45.7975 83.4347 46.1962 83.3658 46.6936H86.2338V46.6935Z" fill="#B20000"/>
<path d="M89.168 41.6605C89.168 41.3802 89.2659 41.1471 89.4645 40.9591C89.6628 40.771 89.9194 40.6768 90.2318 40.6768C90.5374 40.6768 90.7915 40.7685 90.9967 40.9546C91.2018 41.1406 91.3043 41.3758 91.3043 41.6605C91.3043 41.9449 91.2019 42.1821 90.9987 42.3706C90.7981 42.5587 90.5418 42.6529 90.2318 42.6529C89.9218 42.6529 89.6673 42.5566 89.4666 42.3637C89.2659 42.1711 89.168 41.9359 89.168 41.6605V41.6605ZM89.3104 50.8296V43.9321H91.126V50.8296H89.3104Z" fill="#B20000"/>
<path d="M99.3601 50.8299H97.5448V46.9632C97.5448 45.7827 97.1189 45.1911 96.2713 45.1911C95.843 45.1911 95.4951 45.3525 95.2275 45.675C94.9599 45.9954 94.8261 46.4031 94.8261 46.8984V50.8299H93.0039V43.9324H94.8261V45.0412H94.8461C95.3502 44.1922 96.093 43.7686 97.0741 43.7686C98.5997 43.7686 99.3601 44.7142 99.3601 46.6092V50.8299V50.8299Z" fill="#B20000"/>
<path d="M24.7684 36.3656V29.5225H7.68827V21.36H22.8707V14.6149H7.68827V6.79427H24.6711V0H0V36.3656H24.7684Z" fill="#4A555C"/>
<path d="M45.6461 36.3656V30.5003H42.4346C41.1694 30.5003 40.2366 30.2315 39.6366 29.6936C39.0365 29.156 38.7365 28.2682 38.7365 27.0299V16.3253H45.5489V10.5088H38.7365V3.56836H31.6317V10.5088H27.9336V16.3253H31.6317V27.4209C31.6317 30.3534 32.5321 32.5775 34.3325 34.0926C36.1329 35.608 38.6065 36.3656 41.7532 36.3656H45.6461Z" fill="#4A555C"/>
<path d="M72.4072 27.8111H65.7893C65.7893 30.1571 64.1672 31.3303 60.9232 31.3303C59.3659 31.3303 58.1252 30.9393 57.2006 30.1571C56.2757 29.375 55.8136 28.2018 55.8136 26.6379V25.5135H72.4558V20.8703C72.4558 17.4487 71.4013 14.8093 69.2929 12.9519C67.1842 11.0947 64.3778 10.166 60.8742 10.166C57.403 10.166 54.6053 11.1109 52.4804 13.0008C50.3554 14.8907 49.293 17.465 49.293 20.7234V26.7844C49.293 29.9451 50.3554 32.4138 52.4804 34.1897C54.6053 35.9656 57.403 36.8533 60.8742 36.8533C64.3778 36.8533 67.1759 36.0712 69.2684 34.5073C71.3609 32.943 72.4071 30.8086 72.4071 28.1041V27.8111L72.4072 27.8111ZM65.9351 21.3102H55.8136V20.7234C55.8136 19.0944 56.2595 17.8477 57.1516 16.9842C58.0438 16.121 59.3011 15.6891 60.9232 15.6891C62.5126 15.6891 63.7454 16.1127 64.6213 16.9599C65.4972 17.8072 65.9351 19.0455 65.9351 20.6745V21.3101V21.3102Z" fill="#4A555C"/>
<path d="M99.5121 26.2468H92.8943C92.8943 29.375 91.3207 30.9392 88.174 30.9392C85.0597 30.9392 83.5024 29.2936 83.5024 26.0022V20.9679C83.5024 17.677 85.0597 16.0313 88.174 16.0313C91.3207 16.0313 92.8943 17.6115 92.8943 20.7726H99.5121V20.3327C99.5121 17.0413 98.4983 14.5242 96.4706 12.7809C94.4433 11.0375 91.6777 10.166 88.174 10.166C84.7028 10.166 81.9455 11.0701 79.9016 12.8785C77.8577 14.687 76.8359 17.1879 76.8359 20.3815V26.6378C76.8359 29.8312 77.8577 32.332 79.9016 34.1405C81.9455 35.9493 84.7028 36.8533 88.174 36.8533C91.6777 36.8533 94.4433 35.9818 96.4706 34.2385C98.4983 32.4951 99.5121 29.9776 99.5121 26.6867V26.2468V26.2468Z" fill="#4A555C"/>
</mask>
<g mask="url(#mask0_2181_2680)">
<g filter="url(#filter0_d_2181_2680)">
<rect x="-29.8555" y="-15.9219" width="159.219" height="83.5905" fill="#020202"/>
</g>
</g>
<defs>
<filter id="filter0_d_2181_2680" x="-33.8555" y="-15.9219" width="167.219" height="91.5908" filterUnits="userSpaceOnUse" color-interpolation-filters="sRGB">
<feFlood flood-opacity="0" result="BackgroundImageFix"/>
<feColorMatrix in="SourceAlpha" type="matrix" values="0 0 0 0 0 0 0 0 0 0 0 0 0 0 0 0 0 0 127 0" result="hardAlpha"/>
<feOffset dy="4"/>
<feGaussianBlur stdDeviation="2"/>
<feComposite in2="hardAlpha" operator="out"/>
<feColorMatrix type="matrix" values="0 0 0 0 0 0 0 0 0 0 0 0 0 0 0 0 0 0 0.25 0"/>
<feBlend mode="normal" in2="BackgroundImageFix" result="effect1_dropShadow_2181_2680"/>
<feBlend mode="normal" in="SourceGraphic" in2="effect1_dropShadow_2181_2680" result="shape"/>
</filter>
</defs>
</svg>
