<svg width="127" height="28" viewBox="0 0 127 28" fill="none" xmlns="http://www.w3.org/2000/svg">
<mask id="mask0_2182_2858" style="mask-type:alpha" maskUnits="userSpaceOnUse" x="0" y="0" width="127" height="28">
<mask id="mask1_2182_2858" style="mask-type:luminance" maskUnits="userSpaceOnUse" x="0" y="0" width="127" height="28">
<path d="M127 0H0V27.2127H127V0Z" fill="white"/>
</mask>
<g mask="url(#mask1_2182_2858)">
<path d="M25.8717 17.6389V11.0097C25.8717 11.0097 25.8717 10.8442 25.685 10.8442C25.5195 10.8442 25.5195 11.0097 25.5195 11.0097V17.6389C25.5195 17.6389 25.5195 17.7874 25.702 17.7874C25.8887 17.7874 25.8717 17.6389 25.8717 17.6389Z" fill="#0077D4"/>
<path d="M0 27.2127H127V0H0V27.2127ZM11.294 17.7883C11.4595 17.7883 11.4595 17.6568 11.4595 17.6568V10.455H11.9219V17.6399C11.9219 17.6399 11.9601 18.1955 11.3279 18.1955C10.6958 18.1955 10.7 17.6399 10.7 17.6399V10.455H11.1625V17.6229C11.1625 17.6229 11.1243 17.7883 11.294 17.7883ZM27.3356 19.3407H9.66481V18.5985H27.3356V19.3407ZM13.6105 18.1955V10.455H13.9796L14.442 14.5903V10.455H14.8324V18.1955H14.442L13.9796 13.5427V18.1955H13.6105ZM17.5731 13.8651V14.2892H17.0725V17.7883H17.7386V18.1955H16.5549V10.455H17.5731V10.8452H17.0725V13.8651H17.5731ZM19.8599 17.7798C19.9787 17.7883 19.9787 17.6399 19.9787 17.6399V15.8543C19.9787 15.1035 19.2575 13.4664 19.2575 12.4951V11.0149C19.2575 11.0149 19.2575 10.4762 19.8685 10.4592C20.4794 10.4423 20.4624 11.0149 20.4624 11.0149V12.7538H19.983V11.0149C19.983 11.0149 19.983 10.8495 19.8515 10.8495C19.7199 10.8495 19.7411 11.0149 19.7411 11.0149V12.7538C19.7411 13.3264 20.4624 15.0569 20.4624 15.9688C20.4624 16.3463 20.4624 17.6441 20.4624 17.6441C20.4624 17.6441 20.4624 18.1997 19.8515 18.1997C19.2405 18.1997 19.2575 17.6441 19.2575 17.6441V15.7016H19.7411V17.6441C19.7411 17.6399 19.7411 17.7714 19.8599 17.7798ZM22.7577 10.8452C22.5923 10.8452 22.5923 11.0106 22.5923 11.0106V17.6399C22.5923 17.6399 22.622 17.7883 22.7577 17.7883C22.9062 17.7883 22.9062 17.6399 22.9062 17.6399V15.6973H23.3686V17.6399C23.3686 17.6399 23.3686 18.1955 22.7577 18.1955C22.1468 18.1955 22.1637 17.6399 22.1637 17.6399V11.0106C22.1637 11.0106 22.1637 10.455 22.7577 10.455C23.3517 10.455 23.3686 11.0106 23.3686 11.0106V12.7496H22.9062V11.0106C22.9062 11.0106 22.9062 10.8452 22.7577 10.8452ZM25.0572 17.6399V11.0106C25.0572 11.0106 25.0572 10.455 25.7063 10.455C26.3555 10.455 26.3173 11.0106 26.3173 11.0106V17.6399C26.3173 17.6399 26.3173 18.1955 25.6682 18.1955C25.0572 18.1955 25.0572 17.6399 25.0572 17.6399ZM9.66481 9.26315H27.3356V10.0054H9.66481V9.26315ZM11.0904 8.78814L18.4981 6.52749L25.7954 8.78814H23.6487L18.4981 7.21457L13.2371 8.78814H11.0904ZM9.66481 7.99076L18.4981 5.26779L27.3356 7.99076V8.78814L18.4429 6.10337L9.66481 8.78814V7.99076ZM8.66352 19.8581H28.2986V20.5961H8.66352V19.8581ZM29.2617 21.86H7.73863V21.1178H29.2617V21.86ZM126.232 26.445H36.9961V0.767689H126.232V26.445Z" fill="#0077D4"/>
<path d="M105.989 16.489C105.425 17.0488 104.678 17.3584 103.88 17.3584C102.234 17.3584 100.893 16.0182 100.893 14.3725C100.893 12.7269 102.23 11.3866 103.88 11.3866C104.669 11.3866 105.412 11.6919 105.976 12.2476L106.053 12.3239L107.41 9.43553L107.359 9.39738C106.333 8.67211 105.123 8.28613 103.863 8.28613C100.52 8.28613 97.8047 11.0049 97.8047 14.3428C97.8047 17.685 100.524 20.3995 103.863 20.3995C105.119 20.3995 106.324 20.0178 107.351 19.2925L107.402 19.2543L106.065 16.4126L105.989 16.489Z" fill="#0077D4"/>
<path d="M114.59 17.3683C112.948 17.3683 111.612 16.0323 111.612 14.3909C111.612 12.7495 112.948 11.4134 114.59 11.4134C116.232 11.4134 117.569 12.7495 117.569 14.3909C117.569 16.0323 116.232 17.3683 114.59 17.3683ZM114.573 8.31299C111.239 8.31299 108.523 11.0275 108.523 14.3612C108.523 17.6949 111.239 20.4094 114.573 20.4094C117.908 20.4094 120.623 17.6949 120.623 14.3612C120.623 11.0275 117.912 8.31299 114.573 8.31299Z" fill="#0077D4"/>
<path d="M48.3997 8.67383V14.9256C48.3997 15.4346 48.4506 16.2235 49.0362 16.7579C49.2909 16.9869 49.7488 17.2923 50.5635 17.2923C51.2508 17.2923 51.7855 17.0633 52.1165 16.7579C52.6507 16.2489 52.7271 15.4855 52.7271 14.9256V8.67383H56.3888V15.2819C56.3888 16.5797 56.2614 17.797 55.1157 18.9168C53.8178 20.1892 51.9129 20.3928 50.5635 20.3928C49.1635 20.3928 47.2839 20.1892 45.9856 18.9168C44.942 17.8988 44.7383 16.7579 44.7383 15.5109V8.67383H48.3997Z" fill="#0077D4"/>
<path d="M59.2305 8.67255H62.8917V10.0213C64.0116 8.59621 65.3314 8.36719 66.4003 8.36719C67.3934 8.36719 68.6917 8.54533 69.6546 9.51235C70.7236 10.5812 70.7999 11.9257 70.7999 12.8418V20.0098H67.1387V14.1906C67.1387 13.4526 67.1134 12.5153 66.5276 11.93C66.2477 11.65 65.7893 11.421 65.1321 11.421C64.3684 11.421 63.8848 11.7263 63.6043 12.0318C62.9938 12.6425 62.8917 13.4568 62.8917 14.1906V20.014H59.2305V8.67255Z" fill="#0077D4"/>
<path d="M81.8851 12.7905C81.8594 12.6887 81.6814 11.9761 81.1467 11.4671C80.7394 11.0854 80.1542 10.831 79.4158 10.831C78.4737 10.831 77.9138 11.2127 77.5575 11.569C77.2775 11.8743 77.0228 12.2815 76.9212 12.7905H81.8851ZM85.2664 14.9748H76.7982C76.7982 15.5855 77.0271 16.3999 77.4855 16.9089C78.0455 17.5196 78.8091 17.6214 79.3647 17.6214C79.8994 17.6214 80.4594 17.5196 80.8415 17.2906C80.892 17.2651 81.3251 16.9852 81.6304 16.349L85.0884 16.7052C84.579 18.3042 83.5607 19.144 82.9035 19.5512C81.8088 20.2129 80.5868 20.391 79.3181 20.391C77.6168 20.391 76.1148 20.0856 74.7911 18.7623C73.7985 17.7698 73.0859 16.2726 73.0859 14.3894C73.0859 12.765 73.6712 11.0854 74.8169 9.91481C76.1916 8.54062 77.8929 8.28613 79.1654 8.28613C80.4385 8.28613 82.2667 8.51516 83.6671 9.99115C85.016 11.4163 85.2707 13.1934 85.2707 14.5931V14.9748H85.2664Z" fill="#0077D4"/>
<path d="M94.4975 11.57C93.9375 11.2392 93.1991 10.9339 92.4904 10.9339C92.1088 10.9339 91.6757 11.0357 91.4468 11.2647C91.3194 11.392 91.2178 11.5955 91.2178 11.7737C91.2178 12.0281 91.3957 12.1808 91.5741 12.2826C91.8288 12.4353 92.2104 12.5117 92.6688 12.6643L93.6361 12.9697C94.2724 13.1733 94.9344 13.4278 95.5153 13.9622C96.1774 14.573 96.4063 15.2601 96.4063 16.1253C96.4063 17.6268 95.7448 18.5896 95.2353 19.0985C94.1154 20.2182 92.7407 20.3922 91.5488 20.3922C90.0211 20.3922 88.3708 20.0613 86.8945 18.7677L88.4471 16.3034C88.8034 16.6088 89.3128 16.9651 89.6944 17.1433C90.2038 17.3977 90.738 17.4995 91.2217 17.4995C91.4511 17.4995 92.0364 17.4995 92.3674 17.245C92.5964 17.0669 92.7495 16.787 92.7495 16.507C92.7495 16.3035 92.6732 16.049 92.3421 15.8454C92.0874 15.6927 91.7564 15.5909 91.2217 15.4382L90.3054 15.1583C89.6439 14.9547 88.9565 14.5984 88.4729 14.1149C87.9382 13.555 87.6582 12.9188 87.6582 12.0536C87.6582 10.9593 88.0908 10.0474 88.7529 9.43667C89.7707 8.49506 91.1415 8.2915 92.1851 8.2915C93.8607 8.2915 95.0317 8.72409 95.9484 9.25853L94.4975 11.57Z" fill="#0077D4"/>
</g>
</mask>
<g mask="url(#mask0_2182_2858)">
<g filter="url(#filter0_d_2182_2858)">
<rect x="-38.1016" y="-39.3721" width="203.2" height="106.68" fill="#020202"/>
</g>
</g>
<defs>
<filter id="filter0_d_2182_2858" x="-42.1016" y="-39.3721" width="211.199" height="114.68" filterUnits="userSpaceOnUse" color-interpolation-filters="sRGB">
<feFlood flood-opacity="0" result="BackgroundImageFix"/>
<feColorMatrix in="SourceAlpha" type="matrix" values="0 0 0 0 0 0 0 0 0 0 0 0 0 0 0 0 0 0 127 0" result="hardAlpha"/>
<feOffset dy="4"/>
<feGaussianBlur stdDeviation="2"/>
<feComposite in2="hardAlpha" operator="out"/>
<feColorMatrix type="matrix" values="0 0 0 0 0 0 0 0 0 0 0 0 0 0 0 0 0 0 0.25 0"/>
<feBlend mode="normal" in2="BackgroundImageFix" result="effect1_dropShadow_2182_2858"/>
<feBlend mode="normal" in="SourceGraphic" in2="effect1_dropShadow_2182_2858" result="shape"/>
</filter>
</defs>
</svg>
