<svg width="200" height="30" viewBox="0 0 200 30" fill="none" xmlns="http://www.w3.org/2000/svg">
<path d="M0 29.1701V28.5062H3.04775V2.86307H0V2.19917H20.0818V10.8299H19.4138C19.4138 7.48271 18.8849 5.32503 17.8273 4.35684C16.7974 3.361 14.5708 2.86307 11.1473 2.86307H7.38976V14.7718H9.60251C11.6065 14.7718 12.9843 14.3983 13.7358 13.6515C14.4873 12.8769 14.863 11.4799 14.863 9.46058H15.5728V20.8714H14.863C14.863 18.8243 14.4873 17.4136 13.7358 16.639C12.9843 15.8368 11.6065 15.4357 9.60251 15.4357H7.38976V28.5062H10.7715C12.8868 28.5062 14.5151 28.3956 15.6563 28.1743C16.7974 27.953 17.7299 27.4689 18.4535 26.722C19.1772 25.9751 19.6504 25.0484 19.873 23.9419C20.1235 22.8077 20.3044 21.1618 20.4158 19.0041H21.0838L20.6663 29.1701H0Z" fill="white"/>
<path d="M35.7439 10.083C31.9586 10.083 30.0659 13.2089 30.0659 19.4606C30.0659 25.7123 31.9864 28.8382 35.8274 28.8382C37.2747 28.8382 38.4577 28.3126 39.3762 27.2614C40.3225 26.2102 40.9766 24.8548 41.3384 23.195L42.0899 23.278C41.6724 25.2974 40.8374 26.9295 39.5849 28.1743C38.3324 29.3914 36.7459 30 34.8254 30C31.9586 30 29.7737 29.0456 28.2707 27.1369C26.7676 25.2006 26.0161 22.6694 26.0161 19.5436C26.0161 16.4177 26.7676 13.9281 28.2707 12.0747C29.8015 10.1936 32.0699 9.25311 35.0759 9.25311C36.9964 9.25311 38.5551 9.66805 39.7519 10.4979C40.9487 11.3278 41.5472 12.5864 41.5472 14.2739C41.5472 15.1037 41.2688 15.8091 40.7122 16.39C40.1833 16.9433 39.5432 17.2199 38.7917 17.2199C38.068 17.2199 37.4696 17.0124 36.9964 16.5975C36.5511 16.1549 36.3284 15.6293 36.3284 15.0207C36.3284 14.3845 36.5093 13.8589 36.8712 13.444C37.233 13.0014 37.7201 12.7801 38.3324 12.7801C39.2787 12.7801 39.8354 13.1397 40.0024 13.8589C40.0303 14.1079 40.1555 14.2324 40.3782 14.2324C40.6287 14.2324 40.7539 14.1079 40.7539 13.8589C40.7539 12.9184 40.3225 12.0609 39.4597 11.2863C38.6247 10.4841 37.3861 10.083 35.7439 10.083Z" fill="white"/>
<path d="M61.002 27.0954C59.3877 29.0318 57.1332 30 54.2385 30C51.3439 30 49.0894 29.0318 47.475 27.0954C45.8607 25.1591 45.0535 22.6694 45.0535 19.6266C45.0535 16.5837 45.8607 14.0941 47.475 12.1577C49.0894 10.2213 51.3439 9.25311 54.2385 9.25311C57.1332 9.25311 59.3877 10.2213 61.002 12.1577C62.6164 14.0941 63.4235 16.5837 63.4235 19.6266C63.4235 22.6694 62.6164 25.1591 61.002 27.0954ZM59.2903 22.4066C59.3459 21.6044 59.3738 20.6777 59.3738 19.6266C59.3738 18.5754 59.3459 17.6487 59.2903 16.8465C59.2346 16.0443 59.0954 15.1867 58.8728 14.2739C58.6779 13.361 58.3996 12.6141 58.0378 12.0332C57.7038 11.4246 57.2028 10.9267 56.5348 10.5394C55.8946 10.1521 55.1292 9.9585 54.2385 9.9585C53.3479 9.9585 52.5685 10.1521 51.9005 10.5394C51.2604 10.9267 50.7594 11.4246 50.3975 12.0332C50.0635 12.6141 49.7852 13.361 49.5625 14.2739C49.3677 15.1867 49.2424 16.0443 49.1868 16.8465C49.1311 17.6487 49.1033 18.5754 49.1033 19.6266C49.1033 20.6777 49.1311 21.6044 49.1868 22.4066C49.2424 23.2089 49.3677 24.0664 49.5625 24.9793C49.7852 25.8921 50.0635 26.6528 50.3975 27.2614C50.7594 27.8423 51.2604 28.3264 51.9005 28.7137C52.5685 29.101 53.3479 29.2946 54.2385 29.2946C55.1292 29.2946 55.8946 29.101 56.5348 28.7137C57.2028 28.3264 57.7038 27.8423 58.0378 27.2614C58.3996 26.6528 58.6779 25.8921 58.8728 24.9793C59.0954 24.0664 59.2346 23.2089 59.2903 22.4066Z" fill="white"/>
<path d="M84.5866 17.3859H81.5388V16.722H91.9763V17.3859H88.9286V28.8382C88.3997 28.6445 87.7596 28.5477 87.0081 28.5477C86.2566 28.5477 85.0597 28.7828 83.4176 29.2531C81.8032 29.751 80.3837 30 79.1591 30C75.5964 30 72.827 28.603 70.8508 25.8091C68.8746 22.9876 67.8866 19.6127 67.8866 15.6846C67.8866 11.7289 68.9164 8.35408 70.9761 5.56017C73.0636 2.76625 75.8608 1.36929 79.3678 1.36929C80.6203 1.36929 82.0259 1.60443 83.5846 2.07469C85.1432 2.54495 86.0478 2.78008 86.2983 2.78008C87.1055 2.78008 87.5787 2.30982 87.7178 1.36929H88.2188V10.4564H87.5508C87.1333 7.93914 86.2844 5.93361 85.0041 4.43983C83.7237 2.9184 81.9702 2.15768 79.7436 2.15768C77.0994 2.15768 75.2902 3.27801 74.3161 5.51867C73.5089 7.42738 73.0636 9.94467 72.9801 13.0705C72.9801 13.7898 72.9801 14.8824 72.9801 16.3485C72.9801 17.8147 73.0636 19.2254 73.2306 20.5809C73.3976 21.9364 73.7037 23.3057 74.1491 24.6888C74.5944 26.0719 75.3041 27.1508 76.2783 27.9253C77.2525 28.6722 78.505 29.0456 80.0358 29.0456C81.5667 29.0456 83.0836 28.7275 84.5866 28.0913V17.3859Z" fill="white"/>
<path d="M103.296 9.25311C106.608 9.25311 108.793 10 109.851 11.4938C110.936 12.9599 111.479 15.5325 111.479 19.2116V26.556C111.479 27.6902 111.73 28.2573 112.231 28.2573C113.26 28.2573 113.942 26.6667 114.276 23.4855L115.028 23.5685C114.61 27.8562 113.205 30 110.811 30C110.115 30 109.573 29.751 109.183 29.2531C108.821 28.7552 108.584 28.2158 108.473 27.6349C108.39 27.0263 108.348 26.2794 108.348 25.3942H108.097C107.736 26.8603 106.998 27.9945 105.885 28.7967C104.771 29.5989 103.338 30 101.584 30C99.8587 30 98.3418 29.5436 97.0336 28.6307C95.7255 27.6902 95.0714 26.3485 95.0714 24.6058C95.0714 23.3057 95.4471 22.2268 96.1986 21.3693C97.7573 19.5989 101.292 18.7137 106.803 18.7137C107.109 18.7137 107.429 18.7137 107.763 18.7137V16.6805C107.763 14.4952 107.388 12.8492 106.636 11.7427C105.885 10.6362 104.576 10.083 102.712 10.083C100.875 10.083 99.5247 10.4564 98.6619 11.2033C97.799 11.9502 97.3676 12.7248 97.3676 13.527C97.3676 13.7759 97.479 13.9004 97.7016 13.9004C97.9521 13.9004 98.0913 13.7759 98.1191 13.527C98.2861 12.8077 98.8428 12.4481 99.7891 12.4481C100.401 12.4481 100.889 12.6694 101.25 13.112C101.612 13.527 101.793 14.0526 101.793 14.6888C101.793 15.2974 101.557 15.823 101.083 16.2656C100.638 16.6805 100.04 16.888 99.2881 16.888C98.5645 16.888 97.9243 16.6113 97.3676 16.0581C96.8388 15.4772 96.5744 14.7718 96.5744 13.9419C96.5744 12.3928 97.2285 11.231 98.5366 10.4564C99.8448 9.65422 101.431 9.25311 103.296 9.25311ZM107.763 22.2407V19.4606C107.485 19.4606 107.04 19.4606 106.427 19.4606C105.843 19.4606 105.133 19.5021 104.298 19.5851C103.491 19.668 102.656 19.8755 101.793 20.2075C100.012 20.8437 99.1211 22.2545 99.1211 24.4398C99.1211 25.7676 99.4412 26.8326 100.081 27.6349C100.722 28.4371 101.751 28.8382 103.171 28.8382C104.59 28.8382 105.704 28.2019 106.511 26.9295C107.346 25.657 107.763 24.0941 107.763 22.2407Z" fill="white"/>
<path d="M131.702 12.4066C131.702 11.6874 131.438 11.0927 130.909 10.6224C130.38 10.1521 129.671 9.91701 128.78 9.91701C127.889 9.91701 127.054 10.2766 126.275 10.9958C125.523 11.6874 124.939 12.6003 124.521 13.7344C123.77 15.9198 123.394 18.2849 123.394 20.8299V28.5477H126.442V29.1701H116.923V28.5477H119.678V10.7054H116.714V10.083H117.591C119.818 10.083 121.78 9.90318 123.478 9.54357V13.8589H123.728C124.897 10.7884 126.651 9.25311 128.989 9.25311C130.019 9.25311 130.854 9.58506 131.494 10.249C132.162 10.8852 132.496 11.6874 132.496 12.6556C132.496 13.5961 132.217 14.3568 131.661 14.9378C131.132 15.491 130.492 15.7676 129.74 15.7676C129.017 15.7676 128.418 15.5602 127.945 15.1452C127.5 14.7026 127.277 14.177 127.277 13.5685C127.277 12.9322 127.458 12.4066 127.82 11.9917C128.182 11.5491 128.669 11.3278 129.281 11.3278C130.227 11.3278 130.784 11.6874 130.951 12.4066C131.007 12.6556 131.146 12.7801 131.368 12.7801C131.591 12.7801 131.702 12.6556 131.702 12.4066Z" fill="white"/>
<path d="M154.423 29.1701H147.952V25.3942H147.701C147.2 26.805 146.449 27.9253 145.447 28.7552C144.473 29.5851 143.304 30 141.94 30C139.435 30 137.57 29.0318 136.345 27.0954C135.148 25.1314 134.55 22.6556 134.55 19.668C134.55 16.6805 135.176 14.2047 136.429 12.2407C137.681 10.249 139.602 9.25311 142.19 9.25311C144.779 9.25311 146.616 10.3873 147.701 12.6556H147.952V1.16183H144.987V0.539417H145.864C148.035 0.539417 149.97 0.359611 151.667 0V28.5477H154.423V29.1701ZM148.035 19.668V18.1743C148.035 16.0166 147.618 14.1909 146.783 12.6971C145.948 11.1757 144.64 10.4149 142.858 10.4149C140.938 10.4149 139.727 11.4938 139.226 13.6515C138.808 15.3942 138.6 17.1369 138.6 18.8797C138.6 20.6224 138.641 21.9502 138.725 22.8631C138.836 23.7759 139.017 24.7303 139.268 25.7261C139.546 26.6943 139.991 27.455 140.604 28.0083C141.244 28.5615 141.995 28.8382 142.858 28.8382C143.749 28.8382 144.528 28.5339 145.196 27.9253C145.892 27.2891 146.435 26.4869 146.824 25.5187C147.632 23.5546 148.035 21.6044 148.035 19.668Z" fill="white"/>
<path d="M167.342 9.25311C169.429 9.25311 171.169 9.69571 172.56 10.5809C173.98 11.4661 174.69 12.7939 174.69 14.5643C174.69 17.3029 173.117 18.9903 169.972 19.6266C168.385 19.9308 166.409 20.083 164.043 20.083H162.081V21.2863C162.081 23.527 162.54 25.3527 163.459 26.7635C164.405 28.1466 165.769 28.8382 167.55 28.8382C169.36 28.8382 170.765 28.3126 171.767 27.2614C172.797 26.2102 173.521 24.8548 173.938 23.195L174.69 23.278C174.244 25.2974 173.34 26.9295 171.976 28.1743C170.64 29.3914 168.942 30 166.882 30C163.988 30 161.789 29.0595 160.286 27.1784C158.783 25.2697 158.031 22.7524 158.031 19.6266C158.031 16.5007 158.839 13.9972 160.453 12.1162C162.067 10.2075 164.364 9.25311 167.342 9.25311ZM162.081 19.3361H163.542C165.797 19.3361 167.37 19.1148 168.26 18.6722C169.179 18.2296 169.805 17.6902 170.139 17.0539C170.473 16.39 170.64 15.4633 170.64 14.2739C170.64 13.0844 170.334 12.0747 169.721 11.2448C169.137 10.3873 168.232 9.9585 167.008 9.9585C165.783 9.9585 164.781 10.4011 164.002 11.2863C163.25 12.1438 162.735 13.1535 162.457 14.3154C162.206 15.4772 162.081 16.7635 162.081 18.1743V19.3361Z" fill="white"/>
<path d="M187.183 28.5477V29.1701H177.956V28.5477H180.711V10.7054H177.747V10.083H178.624C180.823 10.083 182.785 9.90318 184.511 9.54357V13.6929H184.761C185.234 12.3651 186.028 11.3001 187.141 10.4979C188.282 9.66805 189.549 9.25311 190.94 9.25311C193.362 9.25311 195.018 9.97234 195.908 11.4108C196.799 12.8216 197.245 14.9378 197.245 17.7593V28.5477H200V29.1701H190.773V28.5477H193.529V18.3402C193.529 15.2144 193.292 13.1535 192.819 12.1577C192.596 11.7151 192.248 11.314 191.775 10.9544C191.33 10.5947 190.662 10.4149 189.771 10.4149C188.881 10.4149 188.032 10.7331 187.224 11.3693C186.445 12.0055 185.861 12.8769 185.471 13.9834C184.775 15.9474 184.427 18.2988 184.427 21.0373V28.5477H187.183Z" fill="white"/>
</svg>
