<svg width="200" height="36" viewBox="0 0 200 36" fill="none" xmlns="http://www.w3.org/2000/svg">
<path d="M10.0791 7.85106C11.8287 7.85106 13.1853 8.23404 14.1488 9C15.1124 9.74043 15.7843 10.7489 16.1647 12.0255C16.5704 13.3021 16.7732 14.7064 16.7732 16.2383V26.3872C16.7732 26.9489 16.583 27.4213 16.2027 27.8043C15.8477 28.1617 15.404 28.3404 14.8715 28.3404C14.3137 28.3404 13.8572 28.1617 13.5023 27.8043C13.1473 27.4213 12.9698 26.9489 12.9698 26.3872V16.2383C12.9698 15.3447 12.843 14.5277 12.5894 13.7872C12.3612 13.0468 11.9428 12.4596 11.3343 12.0255C10.7511 11.5915 9.92701 11.3745 8.86204 11.3745C7.87314 11.3745 6.98567 11.5915 6.19963 12.0255C5.43893 12.4596 4.84306 13.0468 4.412 13.7872C4.0063 14.5277 3.80345 15.3447 3.80345 16.2383V26.3872C3.80345 26.9489 3.61328 27.4213 3.23293 27.8043C2.87794 28.1617 2.43421 28.3404 1.90173 28.3404C1.34389 28.3404 0.887472 28.1617 0.532483 27.8043C0.177494 27.4213 0 26.9489 0 26.3872V1.95319C0 1.39149 0.177494 0.931914 0.532483 0.574468C0.887472 0.191489 1.34389 0 1.90173 0C2.43421 0 2.87794 0.191489 3.23293 0.574468C3.61328 0.931914 3.80345 1.39149 3.80345 1.95319V12.4085L3.11883 12.7915C3.29632 12.2298 3.58792 11.6553 3.99362 11.0681C4.42468 10.4809 4.94449 9.94468 5.55304 9.45957C6.18695 8.97447 6.88425 8.59149 7.64494 8.31064C8.40563 8.00426 9.21703 7.85106 10.0791 7.85106Z" fill="white"/>
<path d="M31.3814 28.7234C29.2769 28.7234 27.4512 28.2894 25.9045 27.4213C24.3577 26.5277 23.1533 25.3149 22.2912 23.783C21.4544 22.2255 21.0361 20.4511 21.0361 18.4596C21.0361 16.2128 21.4798 14.2979 22.3673 12.7149C23.2801 11.1064 24.4592 9.88085 25.9045 9.0383C27.3498 8.17021 28.8838 7.73617 30.5066 7.73617C31.7491 7.73617 32.9282 7.99149 34.0439 8.50213C35.1595 8.98723 36.1484 9.67659 37.0105 10.5702C37.898 11.4383 38.5953 12.4723 39.1024 13.6723C39.6096 14.8468 39.8758 16.1362 39.9012 17.5404C39.8758 18.0511 39.673 18.4723 39.2926 18.8043C38.9123 19.1362 38.4685 19.3021 37.9614 19.3021H23.166L22.2532 16.0468H36.5541L35.8315 16.7362V15.7787C35.7808 14.8851 35.4892 14.1064 34.9567 13.4426C34.4242 12.7532 33.7649 12.2298 32.9789 11.8723C32.1928 11.4894 31.3688 11.2979 30.5066 11.2979C29.746 11.2979 29.0106 11.4255 28.3006 11.6809C27.616 11.9106 26.9948 12.2936 26.437 12.8298C25.9045 13.366 25.4734 14.0809 25.1438 14.9745C24.8395 15.8426 24.6874 16.9277 24.6874 18.2298C24.6874 19.634 24.979 20.8596 25.5622 21.9064C26.1454 22.9532 26.9314 23.7702 27.9203 24.3574C28.9092 24.9191 29.9995 25.2 31.1913 25.2C32.1295 25.2 32.9028 25.1106 33.5114 24.9319C34.1199 24.7277 34.6271 24.4851 35.0328 24.2043C35.4385 23.9234 35.7934 23.6553 36.0977 23.4C36.4781 23.1702 36.8584 23.0553 37.2388 23.0553C37.6952 23.0553 38.0755 23.2213 38.3798 23.5532C38.6841 23.8596 38.8362 24.2298 38.8362 24.6638C38.8362 25.2255 38.5573 25.7362 37.9994 26.1957C37.3148 26.8596 36.364 27.4468 35.1469 27.9574C33.9551 28.4681 32.7 28.7234 31.3814 28.7234Z" fill="white"/>
<path d="M60.7417 7.88936C61.2995 7.88936 61.756 8.08085 62.1109 8.46383C62.4659 8.82128 62.6434 9.28085 62.6434 9.84255V26.3872C62.6434 26.9489 62.4659 27.4213 62.1109 27.8043C61.756 28.1617 61.2995 28.3404 60.7417 28.3404C60.2092 28.3404 59.7528 28.1617 59.3725 27.8043C59.0175 27.4213 58.84 26.9489 58.84 26.3872V23.6298L59.6387 23.7447C59.6387 24.2043 59.4485 24.7149 59.0682 25.2766C58.7132 25.8383 58.2188 26.3872 57.5848 26.9234C56.9509 27.434 56.2029 27.8681 55.3408 28.2255C54.4787 28.5574 53.5532 28.7234 52.5643 28.7234C50.8147 28.7234 49.2426 28.2766 47.848 27.383C46.4534 26.4638 45.3504 25.2128 44.539 23.6298C43.7276 22.0468 43.3219 20.2468 43.3219 18.2298C43.3219 16.1617 43.7276 14.3489 44.539 12.7915C45.3504 11.2085 46.4407 9.97021 47.81 9.0766C49.2046 8.18298 50.7513 7.73617 52.4502 7.73617C53.5405 7.73617 54.5421 7.91489 55.4549 8.27234C56.3931 8.62979 57.2045 9.08936 57.8891 9.65106C58.5737 10.2128 59.0935 10.8128 59.4485 11.4511C59.8289 12.0638 60.0191 12.6511 60.0191 13.2128L58.84 13.3277V9.84255C58.84 9.30638 59.0175 8.84681 59.3725 8.46383C59.7528 8.08085 60.2092 7.88936 60.7417 7.88936ZM52.9827 25.2C54.1744 25.2 55.2267 24.8936 56.1395 24.2809C57.0524 23.6681 57.7623 22.8383 58.2695 21.7915C58.7766 20.7191 59.0302 19.5319 59.0302 18.2298C59.0302 16.9021 58.7766 15.7149 58.2695 14.6681C57.7623 13.6213 57.0524 12.7915 56.1395 12.1787C55.2267 11.566 54.1744 11.2596 52.9827 11.2596C51.8163 11.2596 50.7767 11.566 49.8638 12.1787C48.9764 12.7915 48.2664 13.6213 47.7339 14.6681C47.2268 15.7149 46.9732 16.9021 46.9732 18.2298C46.9732 19.5319 47.2268 20.7191 47.7339 21.7915C48.2664 22.8383 48.9764 23.6681 49.8638 24.2809C50.7767 24.8936 51.8163 25.2 52.9827 25.2Z" fill="white"/>
<path d="M72.0796 26.3872C72.0796 26.9489 71.8894 27.4213 71.509 27.8043C71.154 28.1617 70.7103 28.3404 70.1778 28.3404C69.6453 28.3404 69.1889 28.1617 68.8086 27.8043C68.4536 27.4213 68.2761 26.9489 68.2761 26.3872V1.95319C68.2761 1.39149 68.4663 0.931914 68.8466 0.574468C69.227 0.191489 69.6834 0 70.2159 0C70.7737 0 71.2174 0.191489 71.5471 0.574468C71.9021 0.931914 72.0796 1.39149 72.0796 1.95319V26.3872Z" fill="white"/>
<path d="M77.3628 8.42553H86.3009C86.808 8.42553 87.2264 8.60425 87.556 8.9617C87.911 9.29362 88.0885 9.71489 88.0885 10.2255C88.0885 10.7106 87.911 11.1191 87.556 11.4511C87.2264 11.783 86.808 11.9489 86.3009 11.9489H77.3628C76.8557 11.9489 76.4246 11.783 76.0696 11.4511C75.74 11.0936 75.5752 10.6723 75.5752 10.1872C75.5752 9.6766 75.74 9.25532 76.0696 8.9234C76.4246 8.59149 76.8557 8.42553 77.3628 8.42553ZM81.3564 3.44681C81.9142 3.44681 82.3707 3.6383 82.7256 4.02128C83.0806 4.37872 83.2581 4.8383 83.2581 5.4V23.1702C83.2581 23.6298 83.3342 24 83.4863 24.2809C83.6385 24.5617 83.8413 24.7532 84.0949 24.8553C84.3738 24.9574 84.6527 25.0085 84.9316 25.0085C85.2106 25.0085 85.4515 24.9574 85.6543 24.8553C85.8825 24.7532 86.1488 24.7021 86.453 24.7021C86.7573 24.7021 87.0362 24.8426 87.2898 25.1234C87.5434 25.4043 87.6701 25.7872 87.6701 26.2723C87.6701 26.8851 87.3405 27.383 86.6812 27.766C86.022 28.1489 85.312 28.3404 84.5513 28.3404C84.1202 28.3404 83.6131 28.3021 83.0299 28.2255C82.4467 28.1489 81.8762 27.9574 81.3184 27.6511C80.7859 27.3447 80.3422 26.8596 79.9872 26.1957C79.6322 25.5064 79.4547 24.5489 79.4547 23.3234V5.4C79.4547 4.8383 79.6322 4.37872 79.9872 4.02128C80.3675 3.6383 80.8239 3.44681 81.3564 3.44681Z" fill="white"/>
<path d="M102.38 7.85106C104.129 7.85106 105.486 8.23404 106.449 9C107.413 9.74043 108.085 10.7489 108.465 12.0255C108.871 13.3021 109.074 14.7064 109.074 16.2383V26.3872C109.074 26.9489 108.884 27.4213 108.503 27.8043C108.148 28.1617 107.705 28.3404 107.172 28.3404C106.614 28.3404 106.158 28.1617 105.803 27.8043C105.448 27.4213 105.27 26.9489 105.27 26.3872V16.2383C105.27 15.3447 105.144 14.5277 104.89 13.7872C104.662 13.0468 104.243 12.4596 103.635 12.0255C103.052 11.5915 102.228 11.3745 101.163 11.3745C100.174 11.3745 99.2862 11.5915 98.5002 12.0255C97.7395 12.4596 97.1436 13.0468 96.7125 13.7872C96.3068 14.5277 96.104 15.3447 96.104 16.2383V26.3872C96.104 26.9489 95.9138 27.4213 95.5335 27.8043C95.1785 28.1617 94.7347 28.3404 94.2023 28.3404C93.6444 28.3404 93.188 28.1617 92.833 27.8043C92.478 27.4213 92.3005 26.9489 92.3005 26.3872V1.95319C92.3005 1.39149 92.478 0.931914 92.833 0.574468C93.188 0.191489 93.6444 0 94.2023 0C94.7347 0 95.1785 0.191489 95.5335 0.574468C95.9138 0.931914 96.104 1.39149 96.104 1.95319V12.4085L95.4194 12.7915C95.5969 12.2298 95.8885 11.6553 96.2942 11.0681C96.7252 10.4809 97.245 9.94468 97.8536 9.45957C98.4875 8.97447 99.1848 8.59149 99.9455 8.31064C100.706 8.00426 101.518 7.85106 102.38 7.85106Z" fill="white"/>
<path d="M129.273 8.19574C129.806 8.19574 130.249 8.38723 130.604 8.77021C130.985 9.12766 131.175 9.58723 131.175 10.1489V20.2213C131.175 22.8766 130.439 24.9574 128.969 26.4638C127.498 27.9447 125.419 28.6851 122.731 28.6851C120.069 28.6851 118.002 27.9447 116.531 26.4638C115.086 24.9574 114.364 22.8766 114.364 20.2213V10.1489C114.364 9.58723 114.541 9.12766 114.896 8.77021C115.251 8.38723 115.707 8.19574 116.265 8.19574C116.798 8.19574 117.241 8.38723 117.596 8.77021C117.977 9.12766 118.167 9.58723 118.167 10.1489V20.2213C118.167 21.8809 118.547 23.1191 119.308 23.9362C120.094 24.7532 121.235 25.1617 122.731 25.1617C124.253 25.1617 125.406 24.7532 126.192 23.9362C126.978 23.1191 127.371 21.8809 127.371 20.2213V10.1489C127.371 9.58723 127.549 9.12766 127.904 8.77021C128.259 8.38723 128.715 8.19574 129.273 8.19574Z" fill="white"/>
<path d="M146.771 7.73617C148.571 7.73617 149.966 8.11915 150.955 8.88511C151.944 9.62553 152.628 10.634 153.009 11.9106C153.414 13.1617 153.617 14.566 153.617 16.1234V26.3872C153.617 26.9489 153.427 27.4213 153.047 27.8043C152.692 28.1617 152.248 28.3404 151.715 28.3404C151.158 28.3404 150.701 28.1617 150.346 27.8043C149.991 27.4213 149.814 26.9489 149.814 26.3872V16.1617C149.814 15.2426 149.687 14.4255 149.433 13.7106C149.18 12.9702 148.736 12.383 148.102 11.9489C147.494 11.4894 146.632 11.2596 145.516 11.2596C144.476 11.2596 143.563 11.4894 142.777 11.9489C141.991 12.383 141.37 12.9702 140.914 13.7106C140.483 14.4255 140.267 15.2426 140.267 16.1617V26.3872C140.267 26.9489 140.077 27.4213 139.697 27.8043C139.342 28.1617 138.898 28.3404 138.365 28.3404C137.808 28.3404 137.351 28.1617 136.996 27.8043C136.641 27.4213 136.464 26.9489 136.464 26.3872V10.1489C136.464 9.58723 136.641 9.12766 136.996 8.77021C137.351 8.38723 137.808 8.19574 138.365 8.19574C138.898 8.19574 139.342 8.38723 139.697 8.77021C140.077 9.12766 140.267 9.58723 140.267 10.1489V12.2936L139.582 12.6766C139.76 12.1149 140.064 11.5532 140.495 10.9915C140.952 10.4043 141.497 9.86808 142.131 9.38298C142.765 8.87234 143.475 8.47659 144.261 8.19574C145.047 7.88936 145.884 7.73617 146.771 7.73617Z" fill="white"/>
<path d="M162.473 26.3872C162.473 26.9489 162.296 27.4213 161.941 27.8043C161.586 28.1617 161.129 28.3404 160.572 28.3404C160.039 28.3404 159.583 28.1617 159.202 27.8043C158.847 27.4213 158.67 26.9489 158.67 26.3872V9.99574C158.67 9.43404 158.847 8.97447 159.202 8.61702C159.583 8.23404 160.039 8.04255 160.572 8.04255C161.129 8.04255 161.586 8.23404 161.941 8.61702C162.296 8.97447 162.473 9.43404 162.473 9.99574V26.3872ZM160.534 5.51489C159.798 5.51489 159.266 5.38723 158.936 5.13192C158.606 4.85106 158.442 4.39149 158.442 3.75319V3.14042C158.442 2.50213 158.619 2.05532 158.974 1.8C159.329 1.54468 159.862 1.41702 160.572 1.41702C161.332 1.41702 161.877 1.55745 162.207 1.8383C162.537 2.09362 162.702 2.52766 162.702 3.14042V3.75319C162.702 4.41702 162.524 4.8766 162.169 5.13192C161.839 5.38723 161.294 5.51489 160.534 5.51489Z" fill="white"/>
<path d="M176.908 0.0382974C177.39 0.0382974 177.884 0.102127 178.391 0.229787C178.898 0.357446 179.317 0.574468 179.646 0.880851C180.001 1.1617 180.179 1.55745 180.179 2.06808C180.179 2.57872 180.027 3 179.723 3.33191C179.418 3.6383 179.063 3.79149 178.658 3.79149C178.404 3.79149 178.062 3.74042 177.631 3.6383C177.2 3.51064 176.769 3.44681 176.337 3.44681C175.754 3.44681 175.285 3.58723 174.93 3.86808C174.575 4.1234 174.322 4.45532 174.17 4.86383C174.017 5.24681 173.941 5.62979 173.941 6.01277V26.3872C173.941 26.9489 173.751 27.4213 173.371 27.8043C173.016 28.1617 172.572 28.3404 172.04 28.3404C171.482 28.3404 171.025 28.1617 170.67 27.8043C170.315 27.4213 170.138 26.9489 170.138 26.3872V6.05106C170.138 4.28936 170.708 2.84681 171.849 1.7234C173.016 0.599999 174.702 0.0382974 176.908 0.0382974ZM177.669 8.54043C178.176 8.54043 178.594 8.70638 178.924 9.0383C179.253 9.37021 179.418 9.79149 179.418 10.3021C179.418 10.8128 179.253 11.234 178.924 11.566C178.594 11.8979 178.176 12.0638 177.669 12.0638H167.818C167.336 12.0638 166.918 11.8979 166.563 11.566C166.233 11.234 166.068 10.8128 166.068 10.3021C166.068 9.79149 166.233 9.37021 166.563 9.0383C166.918 8.70638 167.336 8.54043 167.818 8.54043H177.669Z" fill="white"/>
<path d="M198.098 8.04255C198.656 8.04255 199.113 8.23404 199.468 8.61702C199.823 8.97447 200 9.43404 200 9.99574V26.4638C200 28.7106 199.569 30.5362 198.707 31.9404C197.87 33.3447 196.729 34.366 195.284 35.0043C193.864 35.6681 192.254 36 190.453 36C189.541 36 188.628 35.9106 187.715 35.7319C186.802 35.5787 186.054 35.3489 185.471 35.0426C184.862 34.7617 184.431 34.417 184.178 34.0085C183.924 33.6 183.886 33.1532 184.064 32.6681C184.241 32.0553 184.545 31.634 184.976 31.4043C185.407 31.2 185.851 31.1872 186.308 31.366C186.739 31.5447 187.309 31.7745 188.019 32.0553C188.729 32.3362 189.541 32.4766 190.453 32.4766C191.696 32.4766 192.748 32.2723 193.61 31.8638C194.472 31.4553 195.119 30.817 195.55 29.9489C196.006 29.0809 196.235 27.9574 196.235 26.5787V23.9362L196.843 24.8553C196.437 25.6979 195.905 26.4 195.246 26.9617C194.586 27.5234 193.8 27.9574 192.888 28.2638C192 28.5702 191.011 28.7234 189.921 28.7234C188.526 28.7234 187.322 28.417 186.308 27.8043C185.319 27.166 184.558 26.2979 184.026 25.2C183.493 24.0766 183.227 22.8 183.227 21.3702V9.99574C183.227 9.43404 183.404 8.97447 183.759 8.61702C184.114 8.23404 184.571 8.04255 185.129 8.04255C185.661 8.04255 186.105 8.23404 186.46 8.61702C186.84 8.97447 187.03 9.43404 187.03 9.99574V20.3362C187.03 22.0213 187.398 23.2596 188.133 24.0511C188.869 24.817 189.959 25.2 191.404 25.2C192.368 25.2 193.204 24.9957 193.914 24.5872C194.624 24.1787 195.182 23.617 195.588 22.9021C195.994 22.1617 196.197 21.3064 196.197 20.3362V9.99574C196.197 9.43404 196.374 8.97447 196.729 8.61702C197.109 8.23404 197.566 8.04255 198.098 8.04255Z" fill="white"/>
</svg>
