<svg width="76" height="102" viewBox="0 0 76 102" fill="none" xmlns="http://www.w3.org/2000/svg">
<path d="M49.152 101.12C40.192 101.12 31.9573 98.944 24.448 94.592C16.9387 90.1547 10.9653 84.096 6.528 76.416C2.176 68.6507 0 59.9467 0 50.304C0 41.0027 2.26133 32.512 6.784 24.832C11.392 17.152 17.4933 11.0933 25.088 6.656C32.768 2.21867 40.9173 0 49.536 0C55.5093 0 60.2453 0.554667 63.744 1.664C67.2427 2.688 71.296 4.52266 75.904 7.168V11.904C71.552 8.91734 67.4987 6.82667 63.744 5.632C60.0747 4.352 55.4667 3.712 49.92 3.712C41.472 3.712 33.7493 5.888 26.752 10.24C19.84 14.5067 14.336 20.2667 10.24 27.52C6.22933 34.688 4.224 42.4107 4.224 50.688C4.224 59.0507 6.272 66.816 10.368 73.984C14.464 81.152 19.8827 86.8693 26.624 91.136C33.4507 95.3173 40.7893 97.408 48.64 97.408C54.272 97.408 59.1787 96.768 63.36 95.488C67.5413 94.1227 71.7227 92.032 75.904 89.216V93.952C71.808 96.4267 67.584 98.2187 63.232 99.328C58.9653 100.523 54.272 101.12 49.152 101.12Z" fill="#FEFEFE"/>
<path d="M53.984 65.56V69.56H18.984V65.56H53.984Z" fill="#FEFEFE"/>
<path d="M52.872 2.56H48.776C42.0347 2.56 37.0853 4.13866 33.928 7.296C30.7707 10.368 29.192 14.9333 29.192 20.992C29.192 24.4907 30.216 27.8613 32.264 31.104C34.312 34.2613 36.7867 36.3947 39.688 37.504C32.3493 38.6987 26.6747 41.7707 22.664 46.72C18.6533 51.6693 16.648 58.1547 16.648 66.176C16.648 72.576 18.056 78.2507 20.872 83.2C23.688 88.064 27.5707 91.8613 32.52 94.592C37.384 97.2373 42.8027 98.56 48.776 98.56H52.872V2.56ZM47.752 36.352C43.656 36.352 40.2 34.8587 37.384 31.872C34.568 28.8853 33.16 25.216 33.16 20.864C33.16 16 34.3547 12.3307 36.744 9.856C39.048 7.38133 42.7173 6.144 47.752 6.144H48.776V36.352H47.752ZM47.752 94.976C42.7173 94.976 38.152 93.7813 34.056 91.392C29.96 88.9173 26.7173 85.504 24.328 81.152C21.9387 76.8 20.744 71.8933 20.744 66.432C20.744 57.6427 23.0907 51.0293 27.784 46.592C32.392 42.0693 39.048 39.808 47.752 39.808H48.776V94.976H47.752Z" fill="#FEFEFE"/>
<path d="M49.736 2.56H53.96V98.56H49.736V2.56Z" fill="#FEFEFE"/>
</svg>
