<svg width="338" height="102" viewBox="0 0 338 102" fill="none" xmlns="http://www.w3.org/2000/svg">
<path d="M49.152 101.12C40.192 101.12 31.9573 98.944 24.448 94.592C16.9387 90.1547 10.9653 84.096 6.528 76.416C2.176 68.6507 0 59.9467 0 50.304C0 41.0027 2.26133 32.512 6.784 24.832C11.392 17.152 17.4933 11.0933 25.088 6.656C32.768 2.21867 40.9173 0 49.536 0C55.5093 0 60.2453 0.554667 63.744 1.664C67.2427 2.688 71.296 4.52266 75.904 7.168V11.904C71.552 8.91734 67.4987 6.82667 63.744 5.632C60.0747 4.352 55.4667 3.712 49.92 3.712C41.472 3.712 33.7493 5.888 26.752 10.24C19.84 14.5067 14.336 20.2667 10.24 27.52C6.22933 34.688 4.224 42.4107 4.224 50.688C4.224 59.0507 6.272 66.816 10.368 73.984C14.464 81.152 19.8827 86.8693 26.624 91.136C33.4507 95.3173 40.7893 97.408 48.64 97.408C54.272 97.408 59.1787 96.768 63.36 95.488C67.5413 94.1227 71.7227 92.032 75.904 89.216V93.952C71.808 96.4267 67.584 98.2187 63.232 99.328C58.9653 100.523 54.272 101.12 49.152 101.12Z" fill="#FEFEFE"/>
<path d="M53.984 65.56V69.56H18.984V65.56H53.984Z" fill="#FEFEFE"/>
<path d="M52.872 2.56H48.776C42.0347 2.56 37.0853 4.13866 33.928 7.296C30.7707 10.368 29.192 14.9333 29.192 20.992C29.192 24.4907 30.216 27.8613 32.264 31.104C34.312 34.2613 36.7867 36.3947 39.688 37.504C32.3493 38.6987 26.6747 41.7707 22.664 46.72C18.6533 51.6693 16.648 58.1547 16.648 66.176C16.648 72.576 18.056 78.2507 20.872 83.2C23.688 88.064 27.5707 91.8613 32.52 94.592C37.384 97.2373 42.8027 98.56 48.776 98.56H52.872V2.56ZM47.752 36.352C43.656 36.352 40.2 34.8587 37.384 31.872C34.568 28.8853 33.16 25.216 33.16 20.864C33.16 16 34.3547 12.3307 36.744 9.856C39.048 7.38133 42.7173 6.144 47.752 6.144H48.776V36.352H47.752ZM47.752 94.976C42.7173 94.976 38.152 93.7813 34.056 91.392C29.96 88.9173 26.7173 85.504 24.328 81.152C21.9387 76.8 20.744 71.8933 20.744 66.432C20.744 57.6427 23.0907 51.0293 27.784 46.592C32.392 42.0693 39.048 39.808 47.752 39.808H48.776V94.976H47.752Z" fill="#FEFEFE"/>
<path d="M49.736 2.56H53.96V98.56H49.736V2.56Z" fill="#FEFEFE"/>
<path d="M97.04 27.776C95.8453 27.776 94.7787 27.3493 93.84 26.496C92.9867 25.6427 92.56 24.576 92.56 23.296C92.56 22.1013 92.9867 21.0773 93.84 20.224C94.7787 19.3707 95.8453 18.944 97.04 18.944C98.2347 18.944 99.2587 19.3707 100.112 20.224C101.051 21.0773 101.52 22.1013 101.52 23.296C101.52 24.576 101.051 25.6427 100.112 26.496C99.2587 27.3493 98.2347 27.776 97.04 27.776ZM94.992 40.96H99.088V98.56H94.992V40.96Z" fill="#FEFEFE"/>
<path d="M148.381 99.968C143.176 99.968 138.141 98.56 133.277 95.744C128.498 92.928 124.829 89.216 122.269 84.608V98.56H118.173V2.56H122.269V55.552C124.573 50.688 128.157 46.8053 133.021 43.904C137.885 41.0027 143.005 39.552 148.381 39.552C153.928 39.552 159.005 40.9173 163.613 43.648C168.306 46.3787 172.018 50.048 174.749 54.656C177.48 59.264 178.845 64.2987 178.845 69.76C178.845 75.2213 177.48 80.256 174.749 84.864C172.018 89.472 168.306 93.1413 163.613 95.872C159.005 98.6027 153.928 99.968 148.381 99.968ZM148.637 96.384C153.33 96.384 157.682 95.1893 161.693 92.8C165.704 90.3253 168.861 87.0827 171.165 83.072C173.554 78.976 174.749 74.5387 174.749 69.76C174.749 65.0667 173.554 60.672 171.165 56.576C168.776 52.48 165.576 49.2373 161.565 46.848C157.554 44.3733 153.202 43.136 148.509 43.136C143.816 43.136 139.421 44.3733 135.325 46.848C131.314 49.3227 128.072 52.608 125.597 56.704C123.208 60.8 122.013 65.1947 122.013 69.888C122.013 74.5813 123.208 78.976 125.597 83.072C128.072 87.0827 131.357 90.3253 135.453 92.8C139.549 95.1893 143.944 96.384 148.637 96.384Z" fill="#FEFEFE"/>
<path d="M219.705 96.512C224.142 96.512 228.366 95.36 232.377 93.056C236.388 90.752 239.716 87.5947 242.361 83.584V90.112C239.204 93.6107 235.748 96.1707 231.993 97.792C228.238 99.328 223.972 100.096 219.193 100.096C213.902 100.096 208.91 98.688 204.217 95.872C199.609 93.056 195.897 89.3013 193.081 84.608C190.35 79.9147 188.985 74.9227 188.985 69.632C188.985 63.9147 190.35 58.7947 193.081 54.272C195.812 49.664 199.524 46.08 204.217 43.52C208.996 40.96 214.286 39.68 220.089 39.68C228.964 39.68 236.516 43.1787 242.745 50.176L202.553 89.856C205.369 92.16 208.1 93.8667 210.745 94.976C213.39 96 216.377 96.512 219.705 96.512ZM193.081 69.248C193.081 76.3307 195.428 82.3893 200.121 87.424L237.625 50.176C234.809 47.7013 232.078 45.952 229.433 44.928C226.788 43.8187 223.63 43.264 219.961 43.264C214.756 43.264 210.105 44.416 206.009 46.72C201.998 48.9387 198.841 52.0107 196.537 55.936C194.233 59.8613 193.081 64.2987 193.081 69.248Z" fill="#FEFEFE"/>
<path d="M277.436 99.712C273.425 99.712 269.756 98.816 266.428 97.024C263.1 95.1467 260.455 92.544 258.492 89.216C256.529 85.888 255.548 82.176 255.548 78.08V2.56H259.644V78.08C259.644 81.4933 260.412 84.5653 261.948 87.296C263.569 90.0267 265.745 92.2027 268.476 93.824C271.207 95.36 274.193 96.128 277.436 96.128V99.712Z" fill="#FEFEFE"/>
<path d="M314.83 96.512C319.267 96.512 323.491 95.36 327.502 93.056C331.513 90.752 334.841 87.5947 337.486 83.584V90.112C334.329 93.6107 330.873 96.1707 327.118 97.792C323.363 99.328 319.097 100.096 314.318 100.096C309.027 100.096 304.035 98.688 299.342 95.872C294.734 93.056 291.022 89.3013 288.206 84.608C285.475 79.9147 284.11 74.9227 284.11 69.632C284.11 63.9147 285.475 58.7947 288.206 54.272C290.937 49.664 294.649 46.08 299.342 43.52C304.121 40.96 309.411 39.68 315.214 39.68C324.089 39.68 331.641 43.1787 337.87 50.176L297.678 89.856C300.494 92.16 303.225 93.8667 305.87 94.976C308.515 96 311.502 96.512 314.83 96.512ZM288.206 69.248C288.206 76.3307 290.553 82.3893 295.246 87.424L332.75 50.176C329.934 47.7013 327.203 45.952 324.558 44.928C321.913 43.8187 318.755 43.264 315.086 43.264C309.881 43.264 305.23 44.416 301.134 46.72C297.123 48.9387 293.966 52.0107 291.662 55.936C289.358 59.8613 288.206 64.2987 288.206 69.248Z" fill="#FEFEFE"/>
</svg>
