<svg width="200" height="45" viewBox="0 0 200 45" fill="none" xmlns="http://www.w3.org/2000/svg">
<path fill-rule="evenodd" clip-rule="evenodd" d="M44.1903 15.2602C45.9369 17.074 47.0873 19.336 47.2419 21.2619L47.3279 22.3337L46.0635 21.6339C42.9 19.8839 39.7909 19.9949 34.5657 22.0457C33.1197 22.6132 29.2299 24.3543 25.922 25.9145C13.9462 31.5632 11.0607 32.5634 8.06435 32.1041C4.97577 31.6308 2.206 29.4592 0.81502 26.4208C0.409572 25.5354 -0.130096 23.1105 0.0283214 22.8863C0.0718952 22.8246 0.748347 23.0946 1.53107 23.4868C4.07426 24.7602 6.4139 24.8871 9.8222 23.9361C12.1818 23.2777 14.3773 22.3641 20.2546 19.5957C33.9294 13.1538 36.2438 12.3583 39.6126 12.9425C41.086 13.1979 43.268 14.3029 44.1903 15.2602ZM22.5393 1.99209C23.2796 3.19124 23.0061 5.08981 21.9349 6.1858C20.3093 7.84945 17.8097 8.51331 11.7485 8.89132C9.56287 9.02755 6.92401 9.28471 5.88411 9.46279C4.84454 9.64084 3.94966 9.75568 3.89551 9.71811C3.69368 9.57805 6.59703 6.19237 7.88687 5.06409C11.7812 1.65702 16.5781 -0.419653 19.4198 0.0716083C20.7346 0.29883 21.9589 1.05259 22.5393 1.99209ZM42.4989 36.5691C40.4731 39.4368 36.9832 42.2184 33.4567 43.7761C30.4376 45.1098 28.236 45.3463 26.5221 44.5208C24.1288 43.3679 23.6666 40.3736 25.6101 38.6166C27.379 37.0173 29.6761 36.4352 35.6405 36.0763C37.7461 35.9496 40.3716 35.6964 41.474 35.5138L43.479 35.1817L42.4989 36.5691Z" fill="white"/>
<path fill-rule="evenodd" clip-rule="evenodd" d="M39.1153 5.92691C40.4386 7.14873 41.5516 8.46238 42.7203 10.1812C43.7325 11.6702 43.7486 12.1288 42.7646 11.4526C41.1283 10.3279 38.0547 9.93218 35.0717 10.4623C32.4577 10.9268 29.5964 12.0922 19.8386 16.6669C11.1293 20.7496 8.04406 21.7952 5.64064 21.4787C4.21012 21.2901 2.40658 20.0397 1.91121 18.8928C1.42612 17.7704 1.6203 16.5524 2.47682 15.3429C3.80954 13.4611 5.5807 12.9383 12.0323 12.5221C14.4789 12.3643 17.3484 12.0496 18.4088 11.8229C20.6779 11.3376 22.7806 10.3224 24.0773 9.08558C26.337 6.93103 26.7226 3.42769 24.9767 0.919541L24.3362 2.68749e-09L25.1797 0.0466938C27.5079 0.175547 30.3594 0.843938 32.6433 1.79556C34.3084 2.48934 37.8213 4.73183 39.1153 5.92691ZM45.2401 25.7282C46.0188 27.0364 45.7564 28.9721 44.6382 30.1658C43.226 31.6736 41.2864 32.1642 35.1839 32.5575C32.7645 32.7139 29.8972 33.0312 28.8121 33.2633C25.0713 34.0634 22.529 35.9962 21.5765 38.7634C20.9614 40.5512 21.4431 42.9721 22.7466 44.6411L23.0116 44.9801L22.4934 44.9984C21.5692 45.0317 18.5735 44.5334 17.1867 44.1158C14.6856 43.3628 13.0935 42.5705 10.5956 40.8354C7.87961 38.9491 6.38983 37.476 4.73152 35.037C3.6868 33.5005 3.57968 32.9887 4.42536 33.5744C5.18063 34.0972 7.65413 34.771 9.18855 34.8721C12.5066 35.0905 15.1358 34.1692 27.0383 28.6167C36.4836 24.2103 39.2169 23.2718 41.6337 23.6052C42.8451 23.7726 44.7398 24.8881 45.2401 25.7282Z" fill="white"/>
<path d="M66.1684 16.6891C66.0477 15.2591 65.4589 14.1024 64.4021 13.2189C63.3529 12.3354 61.9942 11.8937 60.3261 11.8937C59.2014 11.8937 58.2012 12.0996 57.3256 12.5114C56.45 12.9232 55.7631 13.4847 55.2649 14.1959C54.7667 14.9072 54.5176 15.7233 54.5176 16.6441C54.5176 17.2356 54.6309 17.7709 54.8573 18.2501C55.0913 18.7218 55.4197 19.1448 55.8424 19.5191C56.2651 19.886 56.767 20.2079 57.3483 20.4849C57.9295 20.7619 58.5711 21.0053 59.2731 21.2149L61.8093 21.9561C62.6774 22.2181 63.4775 22.5213 64.2097 22.8657C64.9494 23.2101 65.591 23.6219 66.1345 24.1011C66.6855 24.5728 67.112 25.1268 67.4139 25.7632C67.7234 26.3996 67.8781 27.1333 67.8781 27.9643C67.8781 29.1772 67.5611 30.2628 66.927 31.2211C66.3005 32.1794 65.4061 32.9356 64.2436 33.4896C63.0887 34.0362 61.7263 34.3094 60.1562 34.3094C58.6617 34.3094 57.3596 34.0586 56.25 33.557C55.1479 33.0554 54.2761 32.3591 53.6345 31.4682C52.9929 30.5697 52.6306 29.5366 52.5475 28.3686H53.9968C54.0723 29.3194 54.378 30.143 54.9139 30.8393C55.4574 31.5281 56.1783 32.0596 57.0765 32.434C57.9748 32.8083 59.0013 32.9955 60.1562 32.9955C61.4017 32.9955 62.5 32.7859 63.4511 32.3666C64.4021 31.9398 65.1456 31.3484 65.6816 30.5922C66.2175 29.836 66.4855 28.9563 66.4855 27.9531C66.4855 27.1445 66.293 26.452 65.908 25.8755C65.5231 25.299 64.9532 24.8011 64.1983 24.3818C63.451 23.9626 62.5226 23.5882 61.413 23.2588L58.7069 22.4502C56.8954 21.9037 55.5102 21.1587 54.5516 20.2154C53.6005 19.272 53.125 18.0966 53.125 16.6891C53.125 15.5061 53.442 14.458 54.0761 13.5446C54.7101 12.6237 55.5706 11.9012 56.6576 11.3771C57.7521 10.853 58.9862 10.591 60.36 10.591C61.7414 10.591 62.9604 10.8568 64.0172 11.3884C65.0739 11.9124 65.9118 12.6349 66.5308 13.5558C67.1497 14.4692 67.4932 15.5136 67.5611 16.6891H66.1684Z" fill="white"/>
<path d="M79.129 34.2982C77.559 34.2982 76.1927 33.9126 75.0303 33.1415C73.8679 32.3703 72.9696 31.3147 72.3356 29.9745C71.7015 28.6344 71.3845 27.1071 71.3845 25.3926C71.3845 23.6706 71.7015 22.1358 72.3356 20.7881C72.9772 19.4405 73.8565 18.3774 74.9737 17.5987C76.0908 16.8201 77.3665 16.4308 78.8007 16.4308C79.7744 16.4308 80.6953 16.6254 81.5634 17.0147C82.439 17.3966 83.2089 17.9506 83.8731 18.6768C84.5449 19.4031 85.0695 20.279 85.447 21.3047C85.8319 22.3304 86.0244 23.4834 86.0244 24.7637V25.6172H72.2563V24.3706H84.6431C84.6431 23.1203 84.3864 21.9935 83.8731 20.9903C83.3599 19.987 82.6616 19.1897 81.7785 18.5982C80.8953 18.0068 79.9027 17.711 78.8007 17.711C77.6458 17.711 76.6154 18.033 75.7096 18.6768C74.8114 19.3132 74.0981 20.1742 73.5697 21.2598C73.0489 22.3454 72.7771 23.5583 72.7545 24.8984V25.4599C72.7545 26.8974 73.0074 28.1889 73.5131 29.3344C74.0264 30.4724 74.7586 31.3746 75.7096 32.0409C76.6607 32.6998 77.8005 33.0292 79.129 33.0292C80.0801 33.0292 80.8916 32.872 81.5634 32.5575C82.2427 32.2356 82.7975 31.8463 83.2278 31.3896C83.658 30.9329 83.9826 30.4911 84.2015 30.0644L85.4583 30.5697C85.1941 31.1462 84.7827 31.7227 84.2241 32.2992C83.6731 32.8682 82.9711 33.3436 82.1182 33.7255C81.2728 34.1073 80.2764 34.2982 79.129 34.2982Z" fill="white"/>
<path d="M94.7504 34.3094C93.7465 34.3094 92.8256 34.111 91.9877 33.7142C91.1574 33.3174 90.4894 32.7372 89.9837 31.9735C89.4855 31.2099 89.2364 30.2815 89.2364 29.1884C89.2364 28.4697 89.3647 27.837 89.6213 27.2905C89.878 26.7439 90.2743 26.2723 90.8102 25.8755C91.3461 25.4787 92.033 25.153 92.8709 24.8984C93.7087 24.6364 94.7089 24.4342 95.8713 24.292C96.7545 24.1872 97.5433 24.0861 98.2377 23.9888C98.9322 23.884 99.4756 23.723 99.8682 23.5059C100.268 23.2888 100.468 22.9593 100.468 22.5176V21.7989C100.468 20.5411 100.068 19.5416 99.2681 18.8004C98.4679 18.0592 97.3659 17.6886 95.9619 17.6886C94.7164 17.6886 93.6672 17.9618 92.8143 18.5084C91.9688 19.0474 91.3763 19.7437 91.0366 20.5972L89.7346 20.1143C90.0667 19.2908 90.546 18.6057 91.1725 18.0592C91.8066 17.5126 92.5312 17.1046 93.3464 16.8351C94.1692 16.5655 95.0297 16.4308 95.9279 16.4308C96.7054 16.4308 97.4451 16.5393 98.1471 16.7565C98.8567 16.9736 99.487 17.303 100.038 17.7447C100.597 18.1864 101.038 18.7517 101.363 19.4405C101.687 20.1218 101.85 20.9379 101.85 21.8887V33.9388H100.468V30.828H100.366C100.064 31.4719 99.6493 32.0596 99.1209 32.5912C98.6 33.1153 97.9698 33.5345 97.23 33.849C96.4978 34.156 95.6713 34.3094 94.7504 34.3094ZM94.8863 33.0404C95.9732 33.0404 96.9356 32.7784 97.7735 32.2543C98.6189 31.7227 99.2794 30.9965 99.7549 30.0756C100.23 29.1547 100.468 28.1103 100.468 26.9424V24.4043C100.295 24.554 100.042 24.6888 99.7096 24.8086C99.3851 24.9209 99.0152 25.022 98.6 25.1118C98.1924 25.1942 97.7622 25.269 97.3093 25.3364C96.8639 25.3963 96.4299 25.4525 96.0072 25.5049C94.7391 25.6546 93.705 25.8867 92.9048 26.2012C92.1123 26.5081 91.5311 26.9124 91.1612 27.414C90.7989 27.9156 90.6177 28.5221 90.6177 29.2333C90.6177 30.4088 91.0253 31.3371 91.8405 32.0185C92.6557 32.6998 93.671 33.0404 94.8863 33.0404Z" fill="white"/>
<path d="M119.99 16.6891C119.869 15.2591 119.281 14.1024 118.224 13.2189C117.175 12.3354 115.816 11.8937 114.148 11.8937C113.023 11.8937 112.023 12.0996 111.147 12.5114C110.272 12.9232 109.585 13.4847 109.087 14.1959C108.588 14.9072 108.339 15.7233 108.339 16.6441C108.339 17.2356 108.453 17.7709 108.679 18.2501C108.913 18.7218 109.241 19.1448 109.664 19.5191C110.087 19.886 110.589 20.2079 111.17 20.4849C111.751 20.7619 112.393 21.0053 113.095 21.2149L115.631 21.9561C116.499 22.2181 117.299 22.5213 118.031 22.8657C118.771 23.2101 119.413 23.6219 119.956 24.1011C120.507 24.5728 120.934 25.1268 121.236 25.7632C121.545 26.3996 121.7 27.1333 121.7 27.9643C121.7 29.1772 121.383 30.2628 120.749 31.2211C120.122 32.1794 119.228 32.9356 118.065 33.4896C116.91 34.0362 115.548 34.3094 113.978 34.3094C112.483 34.3094 111.181 34.0586 110.072 33.557C108.97 33.0554 108.098 32.3591 107.456 31.4682C106.815 30.5697 106.452 29.5366 106.369 28.3686H107.819C107.894 29.3194 108.2 30.143 108.736 30.8393C109.279 31.5281 110 32.0596 110.898 32.434C111.797 32.8083 112.823 32.9955 113.978 32.9955C115.223 32.9955 116.322 32.7859 117.273 32.3666C118.224 31.9398 118.967 31.3484 119.503 30.5922C120.039 29.836 120.307 28.9563 120.307 27.9531C120.307 27.1445 120.115 26.452 119.73 25.8755C119.345 25.299 118.775 24.8011 118.02 24.3818C117.273 23.9626 116.344 23.5882 115.235 23.2588L112.529 22.4502C110.717 21.9037 109.332 21.1587 108.373 20.2154C107.422 19.272 106.947 18.0966 106.947 16.6891C106.947 15.5061 107.264 14.458 107.898 13.5446C108.532 12.6237 109.392 11.9012 110.479 11.3771C111.574 10.853 112.808 10.591 114.182 10.591C115.563 10.591 116.782 10.8568 117.839 11.3884C118.896 11.9124 119.734 12.6349 120.353 13.5558C120.971 14.4692 121.315 15.5136 121.383 16.6891H119.99Z" fill="white"/>
<path d="M129.962 33.9388L124.753 16.6891H126.203L130.686 31.9286H130.811L135.306 16.6891H136.744L141.228 31.9174H141.341L145.824 16.6891H147.274L142.065 33.9388H140.526L136.087 18.9239H135.94L131.502 33.9388H129.962Z" fill="white"/>
<path d="M157.129 34.2982C155.559 34.2982 154.193 33.9126 153.03 33.1415C151.868 32.3703 150.97 31.3147 150.336 29.9745C149.702 28.6344 149.385 27.1071 149.385 25.3926C149.385 23.6706 149.702 22.1358 150.336 20.7881C150.977 19.4405 151.857 18.3774 152.974 17.5987C154.091 16.8201 155.367 16.4308 156.801 16.4308C157.774 16.4308 158.695 16.6254 159.563 17.0147C160.439 17.3966 161.209 17.9506 161.873 18.6768C162.545 19.4031 163.07 20.279 163.447 21.3047C163.832 22.3304 164.024 23.4834 164.024 24.7637V25.6172H150.256V24.3706H162.643C162.643 23.1203 162.386 21.9935 161.873 20.9903C161.36 19.987 160.662 19.1897 159.779 18.5982C158.895 18.0068 157.903 17.711 156.801 17.711C155.646 17.711 154.616 18.033 153.71 18.6768C152.811 19.3132 152.098 20.1742 151.57 21.2598C151.049 22.3454 150.777 23.5583 150.755 24.8984V25.4599C150.755 26.8974 151.007 28.1889 151.513 29.3344C152.026 30.4724 152.759 31.3746 153.71 32.0409C154.661 32.6998 155.801 33.0292 157.129 33.0292C158.08 33.0292 158.892 32.872 159.563 32.5575C160.243 32.2356 160.798 31.8463 161.228 31.3896C161.658 30.9329 161.983 30.4911 162.202 30.0644L163.458 30.5697C163.194 31.1462 162.783 31.7227 162.224 32.2992C161.673 32.8682 160.971 33.3436 160.118 33.7255C159.273 34.1073 158.276 34.2982 157.129 34.2982Z" fill="white"/>
<path d="M174.924 34.2982C173.354 34.2982 171.988 33.9126 170.826 33.1415C169.663 32.3703 168.765 31.3147 168.131 29.9745C167.497 28.6344 167.18 27.1071 167.18 25.3926C167.18 23.6706 167.497 22.1358 168.131 20.7881C168.773 19.4405 169.652 18.3774 170.769 17.5987C171.886 16.8201 173.162 16.4308 174.596 16.4308C175.57 16.4308 176.491 16.6254 177.359 17.0147C178.234 17.3966 179.004 17.9506 179.668 18.6768C180.34 19.4031 180.865 20.279 181.242 21.3047C181.627 22.3304 181.82 23.4834 181.82 24.7637V25.6172H168.052V24.3706H180.438C180.438 23.1203 180.182 21.9935 179.668 20.9903C179.155 19.987 178.457 19.1897 177.574 18.5982C176.691 18.0068 175.698 17.711 174.596 17.711C173.441 17.711 172.411 18.033 171.505 18.6768C170.607 19.3132 169.893 20.1742 169.365 21.2598C168.844 22.3454 168.572 23.5583 168.55 24.8984V25.4599C168.55 26.8974 168.803 28.1889 169.308 29.3344C169.822 30.4724 170.554 31.3746 171.505 32.0409C172.456 32.6998 173.596 33.0292 174.924 33.0292C175.875 33.0292 176.687 32.872 177.359 32.5575C178.038 32.2356 178.593 31.8463 179.023 31.3896C179.453 30.9329 179.778 30.4911 179.997 30.0644L181.254 30.5697C180.989 31.1462 180.578 31.7227 180.02 32.2992C179.468 32.8682 178.766 33.3436 177.914 33.7255C177.068 34.1073 176.072 34.2982 174.924 34.2982Z" fill="white"/>
<path d="M185.938 40.4075V16.6891H187.285V20.5411H187.455C187.726 19.7999 188.108 19.1186 188.598 18.4972C189.096 17.8757 189.712 17.3779 190.444 17.0035C191.184 16.6217 192.052 16.4308 193.048 16.4308C194.452 16.4308 195.675 16.8126 196.716 17.5763C197.758 18.3399 198.566 19.3956 199.139 20.7432C199.713 22.0834 200 23.6219 200 25.3589C200 27.0958 199.709 28.6381 199.128 29.9858C198.555 31.3259 197.747 32.3816 196.705 33.1527C195.671 33.9164 194.46 34.2982 193.071 34.2982C192.082 34.2982 191.214 34.111 190.467 33.7367C189.727 33.3624 189.104 32.8645 188.598 32.2431C188.1 31.6142 187.719 30.9254 187.455 30.1767H187.319V40.4075H185.938ZM187.296 25.3476C187.296 26.8151 187.523 28.129 187.976 29.2895C188.428 30.4425 189.078 31.3559 189.923 32.0297C190.768 32.696 191.776 33.0292 192.946 33.0292C194.131 33.0292 195.146 32.6923 195.992 32.0185C196.845 31.3371 197.494 30.4163 197.939 29.2558C198.392 28.0953 198.619 26.7926 198.619 25.3476C198.619 23.9027 198.396 22.6037 197.951 21.4507C197.505 20.2977 196.86 19.3881 196.014 18.7218C195.169 18.0479 194.146 17.711 192.946 17.711C191.761 17.711 190.746 18.0442 189.9 18.7105C189.063 19.3694 188.417 20.2753 187.964 21.4283C187.519 22.5738 187.296 23.8802 187.296 25.3476Z" fill="white"/>
</svg>
