<svg width="200" height="58" viewBox="0 0 200 58" fill="none" xmlns="http://www.w3.org/2000/svg">
<mask id="path-1-inside-1_2222_3369" fill="white">
<path d="M30.0604 21.7819C30.2238 21.4894 30.458 21.3432 30.763 21.3432H33.7535C33.8733 21.3432 33.9769 21.3865 34.064 21.4731C34.1511 21.5598 34.1947 21.6627 34.1947 21.7819V32.2785C34.1947 32.3976 34.1511 32.5006 34.064 32.5872C33.9769 32.6738 33.8733 32.7172 33.7535 32.7172H30.7957C30.6759 32.7172 30.5724 32.6738 30.4852 32.5872C30.3981 32.5006 30.3545 32.3976 30.3545 32.2785V27.2414L29.1616 29.5812C29.1289 29.6571 29.0526 29.7437 28.9328 29.8412C28.813 29.9387 28.6604 29.9874 28.4752 29.9874H27.364C27.1789 29.9874 27.0263 29.9387 26.9065 29.8412C26.7867 29.7437 26.7104 29.6571 26.6777 29.5812L25.4848 27.2414V32.2785C25.4848 32.3976 25.4412 32.5006 25.354 32.5872C25.2669 32.6738 25.1634 32.7172 25.0435 32.7172H22.0857C21.9659 32.7172 21.8624 32.6738 21.7753 32.5872C21.6881 32.5006 21.6445 32.3976 21.6445 32.2785V21.7819C21.6445 21.6627 21.6881 21.5598 21.7753 21.4731C21.8624 21.3865 21.9659 21.3432 22.0857 21.3432H25.0762C25.3813 21.3432 25.6155 21.4894 25.7789 21.7819L27.9196 25.6815L30.0604 21.7819ZM47.0981 29.5487C47.2179 29.5487 47.3214 29.5921 47.4086 29.6787C47.4957 29.7653 47.5394 29.8683 47.5394 29.9874V32.2785C47.5394 32.3976 47.4957 32.5006 47.4086 32.5872C47.3214 32.6738 47.2179 32.7172 47.0981 32.7172H36.7704C36.6505 32.7172 36.547 32.6738 36.4599 32.5872C36.3726 32.5006 36.3291 32.3976 36.3291 32.2785V21.7819C36.3291 21.6627 36.3726 21.5598 36.4599 21.4731C36.547 21.3865 36.6505 21.3432 36.7704 21.3432H46.9347C47.0545 21.3432 47.158 21.3865 47.2452 21.4731C47.3323 21.5598 47.3759 21.6627 47.3759 21.7819V24.0729C47.3759 24.192 47.3323 24.295 47.2452 24.3816C47.158 24.4683 47.0545 24.5116 46.9347 24.5116H40.5779V25.5353H46.0359C46.1557 25.5353 46.2592 25.5787 46.3464 25.6653C46.4336 25.7519 46.4772 25.8549 46.4772 25.974V28.0863C46.4772 28.2054 46.4336 28.3084 46.3464 28.395C46.2592 28.4817 46.1557 28.525 46.0359 28.525H40.5779V29.5487H47.0981ZM55.6383 21.3432C57.4794 21.3432 58.9502 21.7385 60.0505 22.5293C61.1617 23.3201 61.7173 24.5441 61.7173 26.2015V27.8588C61.7173 29.5487 61.1671 30.7836 60.0668 31.5635C58.9773 32.3326 57.5012 32.7172 55.6383 32.7172H50.4254C50.3056 32.7172 50.202 32.6738 50.1149 32.5872C50.0278 32.5006 49.9841 32.3976 49.9841 32.2785V21.7819C49.9841 21.6627 50.0278 21.5598 50.1149 21.4731C50.202 21.3865 50.3056 21.3432 50.4254 21.3432H55.6383ZM55.72 29.5487C56.232 29.5487 56.6351 29.4296 56.9292 29.1912C57.2343 28.9421 57.3868 28.5954 57.3868 28.1513V25.909C57.3868 25.4649 57.2343 25.1237 56.9292 24.8853C56.6351 24.6362 56.232 24.5116 55.72 24.5116H54.2329V29.5487H55.72ZM75.6338 21.3432C75.7319 21.3432 75.8136 21.381 75.879 21.4569C75.9552 21.5219 75.9934 21.6031 75.9934 21.7006L75.977 21.8144L72.2185 32.181C72.1639 32.3326 72.0768 32.4626 71.957 32.5709C71.8371 32.6684 71.6792 32.7172 71.4831 32.7172H67.6756C67.4795 32.7172 67.3215 32.6684 67.2017 32.5709C67.0818 32.4626 67.0001 32.3488 66.9565 32.2297L63.1652 21.8144L63.149 21.7006C63.149 21.6031 63.1817 21.5219 63.247 21.4569C63.3232 21.381 63.4105 21.3432 63.5085 21.3432H66.9565C67.1526 21.3432 67.3105 21.4028 67.4303 21.5219C67.5612 21.6302 67.6483 21.7494 67.6919 21.8794L69.5712 28.1026L71.4504 21.8794C71.4939 21.7385 71.5757 21.614 71.6956 21.5056C71.8154 21.3973 71.9788 21.3432 72.1858 21.3432H75.6338ZM85.6774 29.3862H88.6352C88.755 29.3862 88.8586 29.4296 88.9457 29.5162C89.0328 29.6028 89.0764 29.7058 89.0764 29.8249V32.2785C89.0764 32.3976 89.0328 32.5006 88.9457 32.5872C88.8586 32.6738 88.755 32.7172 88.6352 32.7172H78.2747C78.1549 32.7172 78.0514 32.6738 77.9642 32.5872C77.8771 32.5006 77.8335 32.3976 77.8335 32.2785V29.8249C77.8335 29.7058 77.8771 29.6028 77.9642 29.5162C78.0514 29.4296 78.1549 29.3862 78.2747 29.3862H81.2652V24.6741H78.2747C78.1549 24.6741 78.0514 24.6308 77.9642 24.5441C77.8771 24.4575 77.8335 24.3545 77.8335 24.2354V21.7819C77.8335 21.6627 77.8771 21.5598 77.9642 21.4731C78.0514 21.3865 78.1549 21.3432 78.2747 21.3432H88.6352C88.755 21.3432 88.8586 21.3865 88.9457 21.4731C89.0328 21.5598 89.0764 21.6627 89.0764 21.7819V24.2354C89.0764 24.3545 89.0328 24.4575 88.9457 24.5441C88.8586 24.6308 88.755 24.6741 88.6352 24.6741H85.6774V29.3862ZM98.2378 25.4703C99.4358 25.6003 100.395 25.8115 101.114 26.104C101.843 26.3965 102.372 26.7811 102.699 27.2576C103.026 27.7342 103.189 28.3301 103.189 29.045C103.189 29.8249 102.933 30.5074 102.421 31.0923C101.92 31.6664 101.222 32.1106 100.33 32.4247C99.4358 32.728 98.4176 32.8797 97.2737 32.8797C95.999 32.8797 94.9205 32.7226 94.0381 32.4085C93.1554 32.0943 92.4963 31.6773 92.0605 31.1573C91.6247 30.6265 91.4069 30.047 91.4069 29.4187C91.4069 29.3104 91.4396 29.2237 91.5049 29.1587C91.5811 29.0937 91.6738 29.0612 91.7827 29.0612H95.1329C95.3617 29.0612 95.5466 29.1316 95.6886 29.2725C95.8734 29.4458 96.0807 29.5649 96.3095 29.6299C96.5383 29.6841 96.859 29.7112 97.2737 29.7112C98.3083 29.7112 98.8261 29.5541 98.8261 29.24C98.8261 29.11 98.7546 29.0016 98.6137 28.915C98.4829 28.8175 98.2429 28.7363 97.8946 28.6713C97.5566 28.5954 97.0551 28.5197 96.3912 28.4438C94.898 28.2704 93.7541 27.9022 92.9593 27.3389C92.164 26.7648 91.7664 25.9578 91.7664 24.9178C91.7664 24.1813 91.9897 23.5313 92.4364 22.968C92.883 22.4047 93.5151 21.966 94.3322 21.6519C95.1595 21.3378 96.1185 21.1807 97.2083 21.1807C98.341 21.1807 99.3327 21.3594 100.182 21.7169C101.032 22.0635 101.68 22.4968 102.127 23.0168C102.573 23.5367 102.797 24.0458 102.797 24.5441C102.797 24.6525 102.758 24.7391 102.683 24.8041C102.617 24.8691 102.524 24.9016 102.405 24.9016H98.8915C98.7056 24.9016 98.5371 24.8366 98.3849 24.7066C98.2644 24.5983 98.1234 24.5116 97.96 24.4466C97.7966 24.3816 97.5453 24.3491 97.2083 24.3491C96.478 24.3491 96.1134 24.5008 96.1134 24.8041C96.1134 24.9666 96.2544 25.0966 96.5383 25.1941C96.8212 25.2807 97.3881 25.3728 98.2378 25.4703ZM113.446 29.3862H116.403C116.523 29.3862 116.626 29.4296 116.714 29.5162C116.801 29.6028 116.845 29.7058 116.845 29.8249V32.2785C116.845 32.3976 116.801 32.5006 116.714 32.5872C116.626 32.6738 116.523 32.7172 116.403 32.7172H106.043C105.922 32.7172 105.819 32.6738 105.732 32.5872C105.645 32.5006 105.602 32.3976 105.602 32.2785V29.8249C105.602 29.7058 105.645 29.6028 105.732 29.5162C105.819 29.4296 105.922 29.3862 106.043 29.3862H109.033V24.6741H106.043C105.922 24.6741 105.819 24.6308 105.732 24.5441C105.645 24.4575 105.602 24.3545 105.602 24.2354V21.7819C105.602 21.6627 105.645 21.5598 105.732 21.4731C105.819 21.3865 105.922 21.3432 106.043 21.3432H116.403C116.523 21.3432 116.626 21.3865 116.714 21.4731C116.801 21.5598 116.845 21.6627 116.845 21.7819V24.2354C116.845 24.3545 116.801 24.4575 116.714 24.5441C116.626 24.6308 116.523 24.6741 116.403 24.6741H113.446V29.3862ZM131.185 28.0213C131.185 29.6787 130.63 30.9027 129.518 31.6935C128.418 32.4843 126.948 32.8797 125.106 32.8797C123.266 32.8797 121.789 32.4843 120.678 31.6935C119.578 30.9027 119.027 29.6678 119.027 27.9888V26.0715C119.027 24.9666 119.289 24.0513 119.812 23.3255C120.346 22.5889 121.07 22.0472 121.985 21.7006C122.9 21.354 123.941 21.1807 125.106 21.1807C126.273 21.1807 127.307 21.354 128.211 21.7006C129.126 22.0472 129.851 22.5834 130.384 23.3092C130.919 24.035 131.185 24.945 131.185 26.039V28.0213ZM123.439 28.3301C123.439 28.7741 123.586 29.1154 123.881 29.3537C124.186 29.5921 124.594 29.7112 125.106 29.7112C125.619 29.7112 126.021 29.5921 126.315 29.3537C126.621 29.1046 126.773 28.7579 126.773 28.3138V25.7465C126.773 25.3024 126.621 24.9612 126.315 24.7229C126.021 24.4738 125.619 24.3491 125.106 24.3491C124.594 24.3491 124.186 24.4683 123.881 24.7066C123.586 24.945 123.439 25.2862 123.439 25.7303V28.3301ZM144.105 21.3432C144.225 21.3432 144.329 21.3865 144.416 21.4731C144.502 21.5598 144.546 21.6627 144.546 21.7819V32.2785C144.546 32.3976 144.502 32.5006 144.416 32.5872C144.329 32.6738 144.225 32.7172 144.105 32.7172H141.474C141.213 32.7172 140.995 32.6034 140.82 32.376L137.258 27.8588V32.2785C137.258 32.3976 137.214 32.5006 137.127 32.5872C137.041 32.6738 136.936 32.7172 136.817 32.7172H133.777C133.658 32.7172 133.554 32.6738 133.467 32.5872C133.38 32.5006 133.336 32.3976 133.336 32.2785V21.7819C133.336 21.6627 133.38 21.5598 133.467 21.4731C133.554 21.3865 133.658 21.3432 133.777 21.3432H136.425C136.686 21.3432 136.899 21.4515 137.062 21.6681L140.624 26.559V21.7819C140.624 21.6627 140.668 21.5598 140.755 21.4731C140.842 21.3865 140.946 21.3432 141.066 21.3432H144.105ZM169.357 25.7953C171.437 26.2827 172.478 27.4039 172.478 29.1587C172.478 29.8953 172.233 30.5452 171.743 31.1086C171.263 31.6719 170.593 32.1106 169.733 32.4247C168.872 32.728 167.896 32.8797 166.807 32.8797C165.51 32.8797 164.438 32.7009 163.588 32.3435C162.749 31.9751 162.134 31.531 161.742 31.0111C161.36 30.4911 161.17 29.9874 161.17 29.5C161.17 29.3916 161.202 29.305 161.268 29.24C161.343 29.175 161.431 29.1425 161.529 29.1425H165.108C165.227 29.1425 165.353 29.2075 165.484 29.3375C165.636 29.4783 165.788 29.5812 165.941 29.6462C166.094 29.7003 166.388 29.7274 166.824 29.7274C167.237 29.7274 167.548 29.6462 167.755 29.4837C167.962 29.3212 168.065 29.1154 168.065 28.8663C168.065 28.3897 167.646 28.1513 166.807 28.1513H164.634C164.514 28.1513 164.41 28.108 164.324 28.0213C164.236 27.9347 164.193 27.8317 164.193 27.7126V26.3965C164.193 26.2448 164.226 26.1149 164.291 26.0065C164.356 25.8874 164.438 25.8007 164.536 25.7465L166.938 24.5116H162.363C162.242 24.5116 162.139 24.4683 162.052 24.3816C161.964 24.295 161.921 24.192 161.921 24.0729V21.7819C161.921 21.6627 161.964 21.5598 162.052 21.4731C162.139 21.3865 162.242 21.3432 162.363 21.3432H171.285C171.404 21.3432 171.508 21.3865 171.595 21.4731C171.682 21.5598 171.726 21.6627 171.726 21.7819V23.8454C171.726 24.0945 171.612 24.3113 171.383 24.4954L169.357 25.7953ZM181.834 24.6741C182.478 24.6416 183.137 24.75 183.812 24.9991C184.498 25.2374 185.076 25.6599 185.544 26.2665C186.013 26.8623 186.247 27.6367 186.247 28.59C186.247 29.4241 186.008 30.1661 185.528 30.8161C185.06 31.466 184.411 31.9751 183.583 32.3435C182.766 32.7009 181.851 32.8797 180.838 32.8797C179.803 32.8797 178.86 32.7172 178.011 32.3922C177.172 32.0564 176.507 31.5798 176.017 30.9623C175.527 30.334 175.281 29.5974 175.281 28.7525C175.281 27.6585 175.821 26.4398 176.899 25.0966L179.628 21.6681C179.782 21.4515 179.994 21.3432 180.266 21.3432H183.55C183.648 21.3432 183.73 21.381 183.795 21.4569C183.872 21.5219 183.91 21.6031 183.91 21.7006C183.91 21.7765 183.888 21.8469 183.844 21.9119L181.834 24.6741ZM182.161 28.655C182.161 28.3192 182.025 28.0592 181.753 27.8751C181.491 27.691 181.171 27.5989 180.789 27.5989C180.408 27.5989 180.081 27.691 179.808 27.8751C179.547 28.0592 179.416 28.3192 179.416 28.655C179.416 28.9909 179.547 29.2508 179.808 29.435C180.081 29.6191 180.408 29.7112 180.789 29.7112C181.171 29.7112 181.491 29.6191 181.753 29.435C182.025 29.2508 182.161 28.9909 182.161 28.655ZM200 28.5088C200 29.9495 199.493 31.0382 198.48 31.7748C197.478 32.5113 196.16 32.8797 194.526 32.8797C192.88 32.8797 191.557 32.5113 190.555 31.7748C189.553 31.0382 189.051 29.9387 189.051 28.4763V25.584C189.051 24.6091 189.296 23.7913 189.787 23.1305C190.277 22.4697 190.93 21.9822 191.748 21.6681C192.576 21.3432 193.501 21.1807 194.526 21.1807C195.55 21.1807 196.47 21.3432 197.287 21.6681C198.116 21.9822 198.774 22.4697 199.265 23.1305C199.755 23.7804 200 24.5875 200 25.5515V28.5088ZM193.463 28.6388C193.463 28.9421 193.567 29.1966 193.774 29.4025C193.981 29.5974 194.231 29.6949 194.526 29.6949C194.82 29.6949 195.07 29.5921 195.277 29.3862C195.485 29.1804 195.588 28.9313 195.588 28.6388V25.3891C195.588 25.0857 195.485 24.8366 195.277 24.6416C195.081 24.4358 194.831 24.3329 194.526 24.3329C194.22 24.3329 193.965 24.4358 193.758 24.6416C193.561 24.8475 193.463 25.0966 193.463 25.3891V28.6388Z"/>
</mask>
<path d="M30.0604 21.7819C30.2238 21.4894 30.458 21.3432 30.763 21.3432H33.7535C33.8733 21.3432 33.9769 21.3865 34.064 21.4731C34.1511 21.5598 34.1947 21.6627 34.1947 21.7819V32.2785C34.1947 32.3976 34.1511 32.5006 34.064 32.5872C33.9769 32.6738 33.8733 32.7172 33.7535 32.7172H30.7957C30.6759 32.7172 30.5724 32.6738 30.4852 32.5872C30.3981 32.5006 30.3545 32.3976 30.3545 32.2785V27.2414L29.1616 29.5812C29.1289 29.6571 29.0526 29.7437 28.9328 29.8412C28.813 29.9387 28.6604 29.9874 28.4752 29.9874H27.364C27.1789 29.9874 27.0263 29.9387 26.9065 29.8412C26.7867 29.7437 26.7104 29.6571 26.6777 29.5812L25.4848 27.2414V32.2785C25.4848 32.3976 25.4412 32.5006 25.354 32.5872C25.2669 32.6738 25.1634 32.7172 25.0435 32.7172H22.0857C21.9659 32.7172 21.8624 32.6738 21.7753 32.5872C21.6881 32.5006 21.6445 32.3976 21.6445 32.2785V21.7819C21.6445 21.6627 21.6881 21.5598 21.7753 21.4731C21.8624 21.3865 21.9659 21.3432 22.0857 21.3432H25.0762C25.3813 21.3432 25.6155 21.4894 25.7789 21.7819L27.9196 25.6815L30.0604 21.7819ZM47.0981 29.5487C47.2179 29.5487 47.3214 29.5921 47.4086 29.6787C47.4957 29.7653 47.5394 29.8683 47.5394 29.9874V32.2785C47.5394 32.3976 47.4957 32.5006 47.4086 32.5872C47.3214 32.6738 47.2179 32.7172 47.0981 32.7172H36.7704C36.6505 32.7172 36.547 32.6738 36.4599 32.5872C36.3726 32.5006 36.3291 32.3976 36.3291 32.2785V21.7819C36.3291 21.6627 36.3726 21.5598 36.4599 21.4731C36.547 21.3865 36.6505 21.3432 36.7704 21.3432H46.9347C47.0545 21.3432 47.158 21.3865 47.2452 21.4731C47.3323 21.5598 47.3759 21.6627 47.3759 21.7819V24.0729C47.3759 24.192 47.3323 24.295 47.2452 24.3816C47.158 24.4683 47.0545 24.5116 46.9347 24.5116H40.5779V25.5353H46.0359C46.1557 25.5353 46.2592 25.5787 46.3464 25.6653C46.4336 25.7519 46.4772 25.8549 46.4772 25.974V28.0863C46.4772 28.2054 46.4336 28.3084 46.3464 28.395C46.2592 28.4817 46.1557 28.525 46.0359 28.525H40.5779V29.5487H47.0981ZM55.6383 21.3432C57.4794 21.3432 58.9502 21.7385 60.0505 22.5293C61.1617 23.3201 61.7173 24.5441 61.7173 26.2015V27.8588C61.7173 29.5487 61.1671 30.7836 60.0668 31.5635C58.9773 32.3326 57.5012 32.7172 55.6383 32.7172H50.4254C50.3056 32.7172 50.202 32.6738 50.1149 32.5872C50.0278 32.5006 49.9841 32.3976 49.9841 32.2785V21.7819C49.9841 21.6627 50.0278 21.5598 50.1149 21.4731C50.202 21.3865 50.3056 21.3432 50.4254 21.3432H55.6383ZM55.72 29.5487C56.232 29.5487 56.6351 29.4296 56.9292 29.1912C57.2343 28.9421 57.3868 28.5954 57.3868 28.1513V25.909C57.3868 25.4649 57.2343 25.1237 56.9292 24.8853C56.6351 24.6362 56.232 24.5116 55.72 24.5116H54.2329V29.5487H55.72ZM75.6338 21.3432C75.7319 21.3432 75.8136 21.381 75.879 21.4569C75.9552 21.5219 75.9934 21.6031 75.9934 21.7006L75.977 21.8144L72.2185 32.181C72.1639 32.3326 72.0768 32.4626 71.957 32.5709C71.8371 32.6684 71.6792 32.7172 71.4831 32.7172H67.6756C67.4795 32.7172 67.3215 32.6684 67.2017 32.5709C67.0818 32.4626 67.0001 32.3488 66.9565 32.2297L63.1652 21.8144L63.149 21.7006C63.149 21.6031 63.1817 21.5219 63.247 21.4569C63.3232 21.381 63.4105 21.3432 63.5085 21.3432H66.9565C67.1526 21.3432 67.3105 21.4028 67.4303 21.5219C67.5612 21.6302 67.6483 21.7494 67.6919 21.8794L69.5712 28.1026L71.4504 21.8794C71.4939 21.7385 71.5757 21.614 71.6956 21.5056C71.8154 21.3973 71.9788 21.3432 72.1858 21.3432H75.6338ZM85.6774 29.3862H88.6352C88.755 29.3862 88.8586 29.4296 88.9457 29.5162C89.0328 29.6028 89.0764 29.7058 89.0764 29.8249V32.2785C89.0764 32.3976 89.0328 32.5006 88.9457 32.5872C88.8586 32.6738 88.755 32.7172 88.6352 32.7172H78.2747C78.1549 32.7172 78.0514 32.6738 77.9642 32.5872C77.8771 32.5006 77.8335 32.3976 77.8335 32.2785V29.8249C77.8335 29.7058 77.8771 29.6028 77.9642 29.5162C78.0514 29.4296 78.1549 29.3862 78.2747 29.3862H81.2652V24.6741H78.2747C78.1549 24.6741 78.0514 24.6308 77.9642 24.5441C77.8771 24.4575 77.8335 24.3545 77.8335 24.2354V21.7819C77.8335 21.6627 77.8771 21.5598 77.9642 21.4731C78.0514 21.3865 78.1549 21.3432 78.2747 21.3432H88.6352C88.755 21.3432 88.8586 21.3865 88.9457 21.4731C89.0328 21.5598 89.0764 21.6627 89.0764 21.7819V24.2354C89.0764 24.3545 89.0328 24.4575 88.9457 24.5441C88.8586 24.6308 88.755 24.6741 88.6352 24.6741H85.6774V29.3862ZM98.2378 25.4703C99.4358 25.6003 100.395 25.8115 101.114 26.104C101.843 26.3965 102.372 26.7811 102.699 27.2576C103.026 27.7342 103.189 28.3301 103.189 29.045C103.189 29.8249 102.933 30.5074 102.421 31.0923C101.92 31.6664 101.222 32.1106 100.33 32.4247C99.4358 32.728 98.4176 32.8797 97.2737 32.8797C95.999 32.8797 94.9205 32.7226 94.0381 32.4085C93.1554 32.0943 92.4963 31.6773 92.0605 31.1573C91.6247 30.6265 91.4069 30.047 91.4069 29.4187C91.4069 29.3104 91.4396 29.2237 91.5049 29.1587C91.5811 29.0937 91.6738 29.0612 91.7827 29.0612H95.1329C95.3617 29.0612 95.5466 29.1316 95.6886 29.2725C95.8734 29.4458 96.0807 29.5649 96.3095 29.6299C96.5383 29.6841 96.859 29.7112 97.2737 29.7112C98.3083 29.7112 98.8261 29.5541 98.8261 29.24C98.8261 29.11 98.7546 29.0016 98.6137 28.915C98.4829 28.8175 98.2429 28.7363 97.8946 28.6713C97.5566 28.5954 97.0551 28.5197 96.3912 28.4438C94.898 28.2704 93.7541 27.9022 92.9593 27.3389C92.164 26.7648 91.7664 25.9578 91.7664 24.9178C91.7664 24.1813 91.9897 23.5313 92.4364 22.968C92.883 22.4047 93.5151 21.966 94.3322 21.6519C95.1595 21.3378 96.1185 21.1807 97.2083 21.1807C98.341 21.1807 99.3327 21.3594 100.182 21.7169C101.032 22.0635 101.68 22.4968 102.127 23.0168C102.573 23.5367 102.797 24.0458 102.797 24.5441C102.797 24.6525 102.758 24.7391 102.683 24.8041C102.617 24.8691 102.524 24.9016 102.405 24.9016H98.8915C98.7056 24.9016 98.5371 24.8366 98.3849 24.7066C98.2644 24.5983 98.1234 24.5116 97.96 24.4466C97.7966 24.3816 97.5453 24.3491 97.2083 24.3491C96.478 24.3491 96.1134 24.5008 96.1134 24.8041C96.1134 24.9666 96.2544 25.0966 96.5383 25.1941C96.8212 25.2807 97.3881 25.3728 98.2378 25.4703ZM113.446 29.3862H116.403C116.523 29.3862 116.626 29.4296 116.714 29.5162C116.801 29.6028 116.845 29.7058 116.845 29.8249V32.2785C116.845 32.3976 116.801 32.5006 116.714 32.5872C116.626 32.6738 116.523 32.7172 116.403 32.7172H106.043C105.922 32.7172 105.819 32.6738 105.732 32.5872C105.645 32.5006 105.602 32.3976 105.602 32.2785V29.8249C105.602 29.7058 105.645 29.6028 105.732 29.5162C105.819 29.4296 105.922 29.3862 106.043 29.3862H109.033V24.6741H106.043C105.922 24.6741 105.819 24.6308 105.732 24.5441C105.645 24.4575 105.602 24.3545 105.602 24.2354V21.7819C105.602 21.6627 105.645 21.5598 105.732 21.4731C105.819 21.3865 105.922 21.3432 106.043 21.3432H116.403C116.523 21.3432 116.626 21.3865 116.714 21.4731C116.801 21.5598 116.845 21.6627 116.845 21.7819V24.2354C116.845 24.3545 116.801 24.4575 116.714 24.5441C116.626 24.6308 116.523 24.6741 116.403 24.6741H113.446V29.3862ZM131.185 28.0213C131.185 29.6787 130.63 30.9027 129.518 31.6935C128.418 32.4843 126.948 32.8797 125.106 32.8797C123.266 32.8797 121.789 32.4843 120.678 31.6935C119.578 30.9027 119.027 29.6678 119.027 27.9888V26.0715C119.027 24.9666 119.289 24.0513 119.812 23.3255C120.346 22.5889 121.07 22.0472 121.985 21.7006C122.9 21.354 123.941 21.1807 125.106 21.1807C126.273 21.1807 127.307 21.354 128.211 21.7006C129.126 22.0472 129.851 22.5834 130.384 23.3092C130.919 24.035 131.185 24.945 131.185 26.039V28.0213ZM123.439 28.3301C123.439 28.7741 123.586 29.1154 123.881 29.3537C124.186 29.5921 124.594 29.7112 125.106 29.7112C125.619 29.7112 126.021 29.5921 126.315 29.3537C126.621 29.1046 126.773 28.7579 126.773 28.3138V25.7465C126.773 25.3024 126.621 24.9612 126.315 24.7229C126.021 24.4738 125.619 24.3491 125.106 24.3491C124.594 24.3491 124.186 24.4683 123.881 24.7066C123.586 24.945 123.439 25.2862 123.439 25.7303V28.3301ZM144.105 21.3432C144.225 21.3432 144.329 21.3865 144.416 21.4731C144.502 21.5598 144.546 21.6627 144.546 21.7819V32.2785C144.546 32.3976 144.502 32.5006 144.416 32.5872C144.329 32.6738 144.225 32.7172 144.105 32.7172H141.474C141.213 32.7172 140.995 32.6034 140.82 32.376L137.258 27.8588V32.2785C137.258 32.3976 137.214 32.5006 137.127 32.5872C137.041 32.6738 136.936 32.7172 136.817 32.7172H133.777C133.658 32.7172 133.554 32.6738 133.467 32.5872C133.38 32.5006 133.336 32.3976 133.336 32.2785V21.7819C133.336 21.6627 133.38 21.5598 133.467 21.4731C133.554 21.3865 133.658 21.3432 133.777 21.3432H136.425C136.686 21.3432 136.899 21.4515 137.062 21.6681L140.624 26.559V21.7819C140.624 21.6627 140.668 21.5598 140.755 21.4731C140.842 21.3865 140.946 21.3432 141.066 21.3432H144.105ZM169.357 25.7953C171.437 26.2827 172.478 27.4039 172.478 29.1587C172.478 29.8953 172.233 30.5452 171.743 31.1086C171.263 31.6719 170.593 32.1106 169.733 32.4247C168.872 32.728 167.896 32.8797 166.807 32.8797C165.51 32.8797 164.438 32.7009 163.588 32.3435C162.749 31.9751 162.134 31.531 161.742 31.0111C161.36 30.4911 161.17 29.9874 161.17 29.5C161.17 29.3916 161.202 29.305 161.268 29.24C161.343 29.175 161.431 29.1425 161.529 29.1425H165.108C165.227 29.1425 165.353 29.2075 165.484 29.3375C165.636 29.4783 165.788 29.5812 165.941 29.6462C166.094 29.7003 166.388 29.7274 166.824 29.7274C167.237 29.7274 167.548 29.6462 167.755 29.4837C167.962 29.3212 168.065 29.1154 168.065 28.8663C168.065 28.3897 167.646 28.1513 166.807 28.1513H164.634C164.514 28.1513 164.41 28.108 164.324 28.0213C164.236 27.9347 164.193 27.8317 164.193 27.7126V26.3965C164.193 26.2448 164.226 26.1149 164.291 26.0065C164.356 25.8874 164.438 25.8007 164.536 25.7465L166.938 24.5116H162.363C162.242 24.5116 162.139 24.4683 162.052 24.3816C161.964 24.295 161.921 24.192 161.921 24.0729V21.7819C161.921 21.6627 161.964 21.5598 162.052 21.4731C162.139 21.3865 162.242 21.3432 162.363 21.3432H171.285C171.404 21.3432 171.508 21.3865 171.595 21.4731C171.682 21.5598 171.726 21.6627 171.726 21.7819V23.8454C171.726 24.0945 171.612 24.3113 171.383 24.4954L169.357 25.7953ZM181.834 24.6741C182.478 24.6416 183.137 24.75 183.812 24.9991C184.498 25.2374 185.076 25.6599 185.544 26.2665C186.013 26.8623 186.247 27.6367 186.247 28.59C186.247 29.4241 186.008 30.1661 185.528 30.8161C185.06 31.466 184.411 31.9751 183.583 32.3435C182.766 32.7009 181.851 32.8797 180.838 32.8797C179.803 32.8797 178.86 32.7172 178.011 32.3922C177.172 32.0564 176.507 31.5798 176.017 30.9623C175.527 30.334 175.281 29.5974 175.281 28.7525C175.281 27.6585 175.821 26.4398 176.899 25.0966L179.628 21.6681C179.782 21.4515 179.994 21.3432 180.266 21.3432H183.55C183.648 21.3432 183.73 21.381 183.795 21.4569C183.872 21.5219 183.91 21.6031 183.91 21.7006C183.91 21.7765 183.888 21.8469 183.844 21.9119L181.834 24.6741ZM182.161 28.655C182.161 28.3192 182.025 28.0592 181.753 27.8751C181.491 27.691 181.171 27.5989 180.789 27.5989C180.408 27.5989 180.081 27.691 179.808 27.8751C179.547 28.0592 179.416 28.3192 179.416 28.655C179.416 28.9909 179.547 29.2508 179.808 29.435C180.081 29.6191 180.408 29.7112 180.789 29.7112C181.171 29.7112 181.491 29.6191 181.753 29.435C182.025 29.2508 182.161 28.9909 182.161 28.655ZM200 28.5088C200 29.9495 199.493 31.0382 198.48 31.7748C197.478 32.5113 196.16 32.8797 194.526 32.8797C192.88 32.8797 191.557 32.5113 190.555 31.7748C189.553 31.0382 189.051 29.9387 189.051 28.4763V25.584C189.051 24.6091 189.296 23.7913 189.787 23.1305C190.277 22.4697 190.93 21.9822 191.748 21.6681C192.576 21.3432 193.501 21.1807 194.526 21.1807C195.55 21.1807 196.47 21.3432 197.287 21.6681C198.116 21.9822 198.774 22.4697 199.265 23.1305C199.755 23.7804 200 24.5875 200 25.5515V28.5088ZM193.463 28.6388C193.463 28.9421 193.567 29.1966 193.774 29.4025C193.981 29.5974 194.231 29.6949 194.526 29.6949C194.82 29.6949 195.07 29.5921 195.277 29.3862C195.485 29.1804 195.588 28.9313 195.588 28.6388V25.3891C195.588 25.0857 195.485 24.8366 195.277 24.6416C195.081 24.4358 194.831 24.3329 194.526 24.3329C194.22 24.3329 193.965 24.4358 193.758 24.6416C193.561 24.8475 193.463 25.0966 193.463 25.3891V28.6388Z" fill="white" stroke="white" stroke-width="2" mask="url(#path-1-inside-1_2222_3369)"/>
<path d="M14.6025 6.10498C19.5404 3.5704 25.1641 2.67161 30.6523 3.54053C35.9743 4.38319 40.898 6.84526 44.749 10.5806L43.4561 11.8491C39.8766 8.3855 35.3048 6.10295 30.3652 5.3208C25.2614 4.51276 20.0311 5.34825 15.4385 7.70557C10.8457 10.0631 7.13107 13.8197 4.83691 18.4263C2.54276 23.0329 1.78999 28.2484 2.68848 33.311C3.587 38.3736 6.08922 43.0177 9.83008 46.5649C13.571 50.1119 18.3541 52.3769 23.4805 53.0288C28.6071 53.6807 33.8093 52.6855 38.3271 50.189C42.6994 47.7728 46.2086 44.072 48.3799 39.5991L50.0342 40.3511C47.7019 45.1716 43.9234 49.161 39.2129 51.7642C34.3556 54.4483 28.7617 55.5178 23.249 54.8169C17.7365 54.1159 12.5944 51.6806 8.57324 47.8677C4.55189 44.0547 1.86201 39.0637 0.896484 33.6235C-0.0689979 28.1836 0.739663 22.579 3.20508 17.6284C5.59346 12.8325 9.41575 8.89303 14.1416 6.34717L14.6025 6.10498Z" fill="white" stroke="white"/>
<path d="M16.6299 10.3452C20.6445 8.19612 25.2307 7.37741 29.7236 8.00732C34.0508 8.61405 38.0749 10.5338 41.2559 13.5015L40.3086 14.4683C37.33 11.6983 33.5673 9.90551 29.5225 9.33838C25.312 8.74822 21.0151 9.51587 17.2549 11.5288C13.4946 13.5418 10.4659 16.6965 8.6084 20.5347C6.75098 24.3727 6.16112 28.6959 6.9248 32.8765C7.68857 37.0571 9.7667 40.8774 12.8574 43.7837C15.9482 46.69 19.8904 48.5308 24.1123 49.0386C28.3341 49.5462 32.6154 48.6948 36.3359 46.6089C39.9115 44.6042 42.79 41.5584 44.5908 37.8862L45.8105 38.4409C43.889 42.373 40.8112 45.6345 36.9854 47.7798C33.0132 50.0068 28.4426 50.9151 23.9375 50.3735C19.4324 49.8318 15.2264 47.8682 11.9297 44.7681C8.63295 41.668 6.41556 37.5921 5.60059 33.1313C4.81126 28.8101 5.37779 24.3453 7.2168 20.3452L7.39844 19.9595C9.3814 15.8619 12.6152 12.4945 16.6299 10.3452Z" fill="white" stroke="white"/>
<path d="M18.3984 13.5488C21.7103 11.8489 25.4829 11.2462 29.1641 11.8291C32.6786 12.3856 35.9315 13.9978 38.4961 16.4385L37.1777 17.7314C34.8904 15.5679 31.9957 14.1402 28.8711 13.6455C25.5821 13.1247 22.2117 13.6633 19.252 15.1826C16.2923 16.7018 13.8976 19.1228 12.4189 22.0918C10.9405 25.0608 10.4552 28.4227 11.0342 31.6855C11.6134 34.9484 13.2269 37.9416 15.6377 40.2275C18.0485 42.5134 21.1311 43.9726 24.4346 44.3926C27.7381 44.8127 31.0906 44.1714 34.002 42.5625C36.7676 41.0341 38.9958 38.7071 40.4004 35.8955L42.0859 36.6621C40.6193 39.621 38.3396 42.105 35.5078 43.8203L34.9053 44.1689C31.6475 45.9693 27.8956 46.6869 24.1982 46.2168C20.5011 45.7465 17.0523 44.1136 14.3555 41.5566C11.6586 38.9995 9.85451 35.652 9.20703 32.0039C8.55956 28.3558 9.10246 24.5973 10.7559 21.2773C12.4093 17.9574 15.0867 15.2489 18.3984 13.5488Z" fill="white" stroke="white"/>
<g filter="url(#filter0_d_2222_3369)">
<path d="M10.3242 42.1792C12.6867 44.8938 15.8013 47.0681 19.5352 48.3867C23.27 49.7071 27.1752 50.0178 30.9236 49.4622" stroke="white" stroke-width="4" stroke-miterlimit="10"/>
<path d="M41.4038 14.4376C39.2648 12.065 36.4678 10.1834 33.1354 9.07053C29.8021 7.95608 26.3343 7.74018 23.0195 8.2908" stroke="white" stroke-width="4" stroke-miterlimit="10"/>
</g>
<defs>
<filter id="filter0_d_2222_3369" x="2.81641" y="0" width="46.0742" height="57.7251" filterUnits="userSpaceOnUse" color-interpolation-filters="sRGB">
<feFlood flood-opacity="0" result="BackgroundImageFix"/>
<feColorMatrix in="SourceAlpha" type="matrix" values="0 0 0 0 0 0 0 0 0 0 0 0 0 0 0 0 0 0 127 0" result="hardAlpha"/>
<feOffset/>
<feGaussianBlur stdDeviation="3"/>
<feColorMatrix type="matrix" values="0 0 0 0 0.572549 0 0 0 0 0.768627 0 0 0 0 1 0 0 0 1 0"/>
<feBlend mode="normal" in2="BackgroundImageFix" result="effect1_dropShadow_2222_3369"/>
<feBlend mode="normal" in="SourceGraphic" in2="effect1_dropShadow_2222_3369" result="shape"/>
</filter>
</defs>
</svg>
